<?xml version="1.0" encoding="UTF-8"?> <svg xmlns="http://www.w3.org/2000/svg" xmlns:xlink="http://www.w3.org/1999/xlink" width="432" height="376" viewBox="0 0 432 376"><defs><clipPath id="clip-path"><rect id="Rectangle_628" data-name="Rectangle 628" width="432" height="376" transform="translate(480 1320)" fill="#fff" stroke="#707070" stroke-width="1"></rect></clipPath></defs><g id="Group_5818" data-name="Group 5818" transform="translate(-893 -3348)"><g id="Mask_Group_30" data-name="Mask Group 30" transform="translate(413 2028)" clip-path="url(#clip-path)"><g id="Group_4283" data-name="Group 4283" transform="translate(368.073 1312.166)"><g id="Group_4140" data-name="Group 4140" transform="translate(0)"><g id="Group_4137" data-name="Group 4137"><path id="Path_4829" data-name="Path 4829" d="M-21863,2856c23.543-.259,25.527,15.668,54.98,15.668s32.072-15.877,54.98-15.668" transform="translate(21862.998 -2856)" fill="none" stroke="#0dacc5" stroke-width="1"></path><path id="Path_4830" data-name="Path 4830" d="M-21863,2856c23.543-.259,25.527,15.668,54.98,15.668s32.072-15.877,54.98-15.668" transform="translate(21972.963 -2856)" fill="none" stroke="#0dacc5" stroke-width="1"></path><path id="Path_4831" data-name="Path 4831" d="M-21863,2856c23.543-.259,25.527,15.668,54.98,15.668s32.072-15.877,54.98-15.668" transform="translate(22080.963 -2856)" fill="none" stroke="#0dacc5" stroke-width="1"></path></g><g id="Group_4138" data-name="Group 4138" transform="translate(0 7.579)"><path id="Path_4832" data-name="Path 4832" d="M-21863,2856c23.543-.259,25.527,15.668,54.98,15.668s32.072-15.877,54.98-15.668" transform="translate(21862.998 -2856)" fill="none" stroke="#0dacc5" stroke-width="1"></path><path id="Path_4833" data-name="Path 4833" d="M-21863,2856c23.543-.259,25.527,15.668,54.98,15.668s32.072-15.877,54.98-15.668" transform="translate(21972.963 -2856)" fill="none" stroke="#0dacc5" stroke-width="1"></path><path id="Path_4834" data-name="Path 4834" d="M-21863,2856c23.543-.259,25.527,15.668,54.98,15.668s32.072-15.877,54.98-15.668" transform="translate(22080.963 -2856)" fill="none" stroke="#0dacc5" stroke-width="1"></path></g><g id="Group_4139" data-name="Group 4139" transform="translate(0 15.665)"><path id="Path_4835" data-name="Path 4835" d="M-21863,2856c23.543-.259,25.527,15.668,54.98,15.668s32.072-15.877,54.98-15.668" transform="translate(21862.998 -2856)" fill="none" stroke="#0dacc5" stroke-width="1"></path><path id="Path_4836" data-name="Path 4836" d="M-21863,2856c23.543-.259,25.527,15.668,54.98,15.668s32.072-15.877,54.98-15.668" transform="translate(21972.963 -2856)" fill="none" stroke="#0dacc5" stroke-width="1"></path><path id="Path_4837" data-name="Path 4837" d="M-21863,2856c23.543-.259,25.527,15.668,54.98,15.668s32.072-15.877,54.98-15.668" transform="translate(22080.963 -2856)" fill="none" stroke="#0dacc5" stroke-width="1"></path></g></g><g id="Group_4144" data-name="Group 4144" transform="translate(0 23.502)"><g id="Group_4141" data-name="Group 4141"><path id="Path_4838" data-name="Path 4838" d="M-21863,2856c23.543-.259,25.527,15.668,54.98,15.668s32.072-15.877,54.98-15.668" transform="translate(21862.998 -2856)" fill="none" stroke="#0dacc5" stroke-width="1"></path><path id="Path_4839" data-name="Path 4839" d="M-21863,2856c23.543-.259,25.527,15.668,54.98,15.668s32.072-15.877,54.98-15.668" transform="translate(21972.963 -2856)" fill="none" stroke="#0dacc5" stroke-width="1"></path><path id="Path_4840" data-name="Path 4840" d="M-21863,2856c23.543-.259,25.527,15.668,54.98,15.668s32.072-15.877,54.98-15.668" transform="translate(22080.963 -2856)" fill="none" stroke="#0dacc5" stroke-width="1"></path></g><g id="Group_4142" data-name="Group 4142" transform="translate(0 7.579)"><path id="Path_4841" data-name="Path 4841" d="M-21863,2856c23.543-.259,25.527,15.668,54.98,15.668s32.072-15.877,54.98-15.668" transform="translate(21862.998 -2856)" fill="none" stroke="#0dacc5" stroke-width="1"></path><path id="Path_4842" data-name="Path 4842" d="M-21863,2856c23.543-.259,25.527,15.668,54.98,15.668s32.072-15.877,54.98-15.668" transform="translate(21972.963 -2856)" fill="none" stroke="#0dacc5" stroke-width="1"></path><path id="Path_4843" data-name="Path 4843" d="M-21863,2856c23.543-.259,25.527,15.668,54.98,15.668s32.072-15.877,54.98-15.668" transform="translate(22080.963 -2856)" fill="none" stroke="#0dacc5" stroke-width="1"></path></g><g id="Group_4143" data-name="Group 4143" transform="translate(0 15.665)"><path id="Path_4844" data-name="Path 4844" d="M-21863,2856c23.543-.259,25.527,15.668,54.98,15.668s32.072-15.877,54.98-15.668" transform="translate(21862.998 -2856)" fill="none" stroke="#0dacc5" stroke-width="1"></path><path id="Path_4845" data-name="Path 4845" d="M-21863,2856c23.543-.259,25.527,15.668,54.98,15.668s32.072-15.877,54.98-15.668" transform="translate(21972.963 -2856)" fill="none" stroke="#0dacc5" stroke-width="1"></path><path id="Path_4846" data-name="Path 4846" d="M-21863,2856c23.543-.259,25.527,15.668,54.98,15.668s32.072-15.877,54.98-15.668" transform="translate(22080.963 -2856)" fill="none" stroke="#0dacc5" stroke-width="1"></path></g></g><g id="Group_4148" data-name="Group 4148" transform="translate(0 47.005)"><g id="Group_4145" data-name="Group 4145"><path id="Path_4847" data-name="Path 4847" d="M-21863,2856c23.543-.259,25.527,15.668,54.98,15.668s32.072-15.877,54.98-15.668" transform="translate(21862.998 -2856)" fill="none" stroke="#0dacc5" stroke-width="1"></path><path id="Path_4848" data-name="Path 4848" d="M-21863,2856c23.543-.259,25.527,15.668,54.98,15.668s32.072-15.877,54.98-15.668" transform="translate(21972.963 -2856)" fill="none" stroke="#0dacc5" stroke-width="1"></path><path id="Path_4849" data-name="Path 4849" d="M-21863,2856c23.543-.259,25.527,15.668,54.98,15.668s32.072-15.877,54.98-15.668" transform="translate(22080.963 -2856)" fill="none" stroke="#0dacc5" stroke-width="1"></path></g><g id="Group_4146" data-name="Group 4146" transform="translate(0 7.579)"><path id="Path_4850" data-name="Path 4850" d="M-21863,2856c23.543-.259,25.527,15.668,54.98,15.668s32.072-15.877,54.98-15.668" transform="translate(21862.998 -2856)" fill="none" stroke="#0dacc5" stroke-width="1"></path><path id="Path_4851" data-name="Path 4851" d="M-21863,2856c23.543-.259,25.527,15.668,54.98,15.668s32.072-15.877,54.98-15.668" transform="translate(21972.963 -2856)" fill="none" stroke="#0dacc5" stroke-width="1"></path><path id="Path_4852" data-name="Path 4852" d="M-21863,2856c23.543-.259,25.527,15.668,54.98,15.668s32.072-15.877,54.98-15.668" transform="translate(22080.963 -2856)" fill="none" stroke="#0dacc5" stroke-width="1"></path></g><g id="Group_4147" data-name="Group 4147" transform="translate(0 15.665)"><path id="Path_4853" data-name="Path 4853" d="M-21863,2856c23.543-.259,25.527,15.668,54.98,15.668s32.072-15.877,54.98-15.668" transform="translate(21862.998 -2856)" fill="none" stroke="#0dacc5" stroke-width="1"></path><path id="Path_4854" data-name="Path 4854" d="M-21863,2856c23.543-.259,25.527,15.668,54.98,15.668s32.072-15.877,54.98-15.668" transform="translate(21972.963 -2856)" fill="none" stroke="#0dacc5" stroke-width="1"></path><path id="Path_4855" data-name="Path 4855" d="M-21863,2856c23.543-.259,25.527,15.668,54.98,15.668s32.072-15.877,54.98-15.668" transform="translate(22080.963 -2856)" fill="none" stroke="#0dacc5" stroke-width="1"></path></g></g><g id="Group_4152" data-name="Group 4152" transform="translate(0 70.507)"><g id="Group_4149" data-name="Group 4149"><path id="Path_4856" data-name="Path 4856" d="M-21863,2856c23.543-.259,25.527,15.668,54.98,15.668s32.072-15.877,54.98-15.668" transform="translate(21862.998 -2856)" fill="none" stroke="#0dacc5" stroke-width="1"></path><path id="Path_4857" data-name="Path 4857" d="M-21863,2856c23.543-.259,25.527,15.668,54.98,15.668s32.072-15.877,54.98-15.668" transform="translate(21972.963 -2856)" fill="none" stroke="#0dacc5" stroke-width="1"></path><path id="Path_4858" data-name="Path 4858" d="M-21863,2856c23.543-.259,25.527,15.668,54.98,15.668s32.072-15.877,54.98-15.668" transform="translate(22080.963 -2856)" fill="none" stroke="#0dacc5" stroke-width="1"></path></g><g id="Group_4150" data-name="Group 4150" transform="translate(0 7.579)"><path id="Path_4859" data-name="Path 4859" d="M-21863,2856c23.543-.259,25.527,15.668,54.98,15.668s32.072-15.877,54.98-15.668" transform="translate(21862.998 -2856)" fill="none" stroke="#0dacc5" stroke-width="1"></path><path id="Path_4860" data-name="Path 4860" d="M-21863,2856c23.543-.259,25.527,15.668,54.98,15.668s32.072-15.877,54.98-15.668" transform="translate(21972.963 -2856)" fill="none" stroke="#0dacc5" stroke-width="1"></path><path id="Path_4861" data-name="Path 4861" d="M-21863,2856c23.543-.259,25.527,15.668,54.98,15.668s32.072-15.877,54.98-15.668" transform="translate(22080.963 -2856)" fill="none" stroke="#0dacc5" stroke-width="1"></path></g><g id="Group_4151" data-name="Group 4151" transform="translate(0 15.665)"><path id="Path_4862" data-name="Path 4862" d="M-21863,2856c23.543-.259,25.527,15.668,54.98,15.668s32.072-15.877,54.98-15.668" transform="translate(21862.998 -2856)" fill="none" stroke="#0dacc5" stroke-width="1"></path><path id="Path_4863" data-name="Path 4863" d="M-21863,2856c23.543-.259,25.527,15.668,54.98,15.668s32.072-15.877,54.98-15.668" transform="translate(21972.963 -2856)" fill="none" stroke="#0dacc5" stroke-width="1"></path><path id="Path_4864" data-name="Path 4864" d="M-21863,2856c23.543-.259,25.527,15.668,54.98,15.668s32.072-15.877,54.98-15.668" transform="translate(22080.963 -2856)" fill="none" stroke="#0dacc5" stroke-width="1"></path></g></g><g id="Group_4156" data-name="Group 4156" transform="translate(0 94.009)"><g id="Group_4153" data-name="Group 4153"><path id="Path_4865" data-name="Path 4865" d="M-21863,2856c23.543-.259,25.527,15.668,54.98,15.668s32.072-15.877,54.98-15.668" transform="translate(21862.998 -2856)" fill="none" stroke="#0dacc5" stroke-width="1"></path><path id="Path_4866" data-name="Path 4866" d="M-21863,2856c23.543-.259,25.527,15.668,54.98,15.668s32.072-15.877,54.98-15.668" transform="translate(21972.963 -2856)" fill="none" stroke="#0dacc5" stroke-width="1"></path><path id="Path_4867" data-name="Path 4867" d="M-21863,2856c23.543-.259,25.527,15.668,54.98,15.668s32.072-15.877,54.98-15.668" transform="translate(22080.963 -2856)" fill="none" stroke="#0dacc5" stroke-width="1"></path></g><g id="Group_4154" data-name="Group 4154" transform="translate(0 7.579)"><path id="Path_4868" data-name="Path 4868" d="M-21863,2856c23.543-.259,25.527,15.668,54.98,15.668s32.072-15.877,54.98-15.668" transform="translate(21862.998 -2856)" fill="none" stroke="#0dacc5" stroke-width="1"></path><path id="Path_4869" data-name="Path 4869" d="M-21863,2856c23.543-.259,25.527,15.668,54.98,15.668s32.072-15.877,54.98-15.668" transform="translate(21972.963 -2856)" fill="none" stroke="#0dacc5" stroke-width="1"></path><path id="Path_4870" data-name="Path 4870" d="M-21863,2856c23.543-.259,25.527,15.668,54.98,15.668s32.072-15.877,54.98-15.668" transform="translate(22080.963 -2856)" fill="none" stroke="#0dacc5" stroke-width="1"></path></g><g id="Group_4155" data-name="Group 4155" transform="translate(0 15.665)"><path id="Path_4871" data-name="Path 4871" d="M-21863,2856c23.543-.259,25.527,15.668,54.98,15.668s32.072-15.877,54.98-15.668" transform="translate(21862.998 -2856)" fill="none" stroke="#0dacc5" stroke-width="1"></path><path id="Path_4872" data-name="Path 4872" d="M-21863,2856c23.543-.259,25.527,15.668,54.98,15.668s32.072-15.877,54.98-15.668" transform="translate(21972.963 -2856)" fill="none" stroke="#0dacc5" stroke-width="1"></path><path id="Path_4873" data-name="Path 4873" d="M-21863,2856c23.543-.259,25.527,15.668,54.98,15.668s32.072-15.877,54.98-15.668" transform="translate(22080.963 -2856)" fill="none" stroke="#0dacc5" stroke-width="1"></path></g></g><g id="Group_4160" data-name="Group 4160" transform="translate(0 117.512)"><g id="Group_4157" data-name="Group 4157"><path id="Path_4874" data-name="Path 4874" d="M-21863,2856c23.543-.259,25.527,15.668,54.98,15.668s32.072-15.877,54.98-15.668" transform="translate(21862.998 -2856)" fill="none" stroke="#0dacc5" stroke-width="1"></path><path id="Path_4875" data-name="Path 4875" d="M-21863,2856c23.543-.259,25.527,15.668,54.98,15.668s32.072-15.877,54.98-15.668" transform="translate(21972.963 -2856)" fill="none" stroke="#0dacc5" stroke-width="1"></path><path id="Path_4876" data-name="Path 4876" d="M-21863,2856c23.543-.259,25.527,15.668,54.98,15.668s32.072-15.877,54.98-15.668" transform="translate(22080.963 -2856)" fill="none" stroke="#0dacc5" stroke-width="1"></path></g><g id="Group_4158" data-name="Group 4158" transform="translate(0 7.579)"><path id="Path_4877" data-name="Path 4877" d="M-21863,2856c23.543-.259,25.527,15.668,54.98,15.668s32.072-15.877,54.98-15.668" transform="translate(21862.998 -2856)" fill="none" stroke="#0dacc5" stroke-width="1"></path><path id="Path_4878" data-name="Path 4878" d="M-21863,2856c23.543-.259,25.527,15.668,54.98,15.668s32.072-15.877,54.98-15.668" transform="translate(21972.963 -2856)" fill="none" stroke="#0dacc5" stroke-width="1"></path><path id="Path_4879" data-name="Path 4879" d="M-21863,2856c23.543-.259,25.527,15.668,54.98,15.668s32.072-15.877,54.98-15.668" transform="translate(22080.963 -2856)" fill="none" stroke="#0dacc5" stroke-width="1"></path></g><g id="Group_4159" data-name="Group 4159" transform="translate(0 15.665)"><path id="Path_4880" data-name="Path 4880" d="M-21863,2856c23.543-.259,25.527,15.668,54.98,15.668s32.072-15.877,54.98-15.668" transform="translate(21862.998 -2856)" fill="none" stroke="#0dacc5" stroke-width="1"></path><path id="Path_4881" data-name="Path 4881" d="M-21863,2856c23.543-.259,25.527,15.668,54.98,15.668s32.072-15.877,54.98-15.668" transform="translate(21972.963 -2856)" fill="none" stroke="#0dacc5" stroke-width="1"></path><path id="Path_4882" data-name="Path 4882" d="M-21863,2856c23.543-.259,25.527,15.668,54.98,15.668s32.072-15.877,54.98-15.668" transform="translate(22080.963 -2856)" fill="none" stroke="#0dacc5" stroke-width="1"></path></g></g><g id="Group_4164" data-name="Group 4164" transform="translate(0 141.014)"><g id="Group_4161" data-name="Group 4161"><path id="Path_4883" data-name="Path 4883" d="M-21863,2856c23.543-.259,25.527,15.668,54.98,15.668s32.072-15.877,54.98-15.668" transform="translate(21862.998 -2856)" fill="none" stroke="#0dacc5" stroke-width="1"></path><path id="Path_4884" data-name="Path 4884" d="M-21863,2856c23.543-.259,25.527,15.668,54.98,15.668s32.072-15.877,54.98-15.668" transform="translate(21972.963 -2856)" fill="none" stroke="#0dacc5" stroke-width="1"></path><path id="Path_4885" data-name="Path 4885" d="M-21863,2856c23.543-.259,25.527,15.668,54.98,15.668s32.072-15.877,54.98-15.668" transform="translate(22080.963 -2856)" fill="none" stroke="#0dacc5" stroke-width="1"></path></g><g id="Group_4162" data-name="Group 4162" transform="translate(0 7.579)"><path id="Path_4886" data-name="Path 4886" d="M-21863,2856c23.543-.259,25.527,15.668,54.98,15.668s32.072-15.877,54.98-15.668" transform="translate(21862.998 -2856)" fill="none" stroke="#0dacc5" stroke-width="1"></path><path id="Path_4887" data-name="Path 4887" d="M-21863,2856c23.543-.259,25.527,15.668,54.98,15.668s32.072-15.877,54.98-15.668" transform="translate(21972.963 -2856)" fill="none" stroke="#0dacc5" stroke-width="1"></path><path id="Path_4888" data-name="Path 4888" d="M-21863,2856c23.543-.259,25.527,15.668,54.98,15.668s32.072-15.877,54.98-15.668" transform="translate(22080.963 -2856)" fill="none" stroke="#0dacc5" stroke-width="1"></path></g><g id="Group_4163" data-name="Group 4163" transform="translate(0 15.665)"><path id="Path_4889" data-name="Path 4889" d="M-21863,2856c23.543-.259,25.527,15.668,54.98,15.668s32.072-15.877,54.98-15.668" transform="translate(21862.998 -2856)" fill="none" stroke="#0dacc5" stroke-width="1"></path><path id="Path_4890" data-name="Path 4890" d="M-21863,2856c23.543-.259,25.527,15.668,54.98,15.668s32.072-15.877,54.98-15.668" transform="translate(21972.963 -2856)" fill="none" stroke="#0dacc5" stroke-width="1"></path><path id="Path_4891" data-name="Path 4891" d="M-21863,2856c23.543-.259,25.527,15.668,54.98,15.668s32.072-15.877,54.98-15.668" transform="translate(22080.963 -2856)" fill="none" stroke="#0dacc5" stroke-width="1"></path></g></g><g id="Group_4168" data-name="Group 4168" transform="translate(327.927)"><g id="Group_4165" data-name="Group 4165"><path id="Path_4892" data-name="Path 4892" d="M-21863,2856c23.543-.259,25.527,15.668,54.98,15.668s32.072-15.877,54.98-15.668" transform="translate(21862.998 -2856)" fill="none" stroke="#0dacc5" stroke-width="1"></path><path id="Path_4893" data-name="Path 4893" d="M-21863,2856c23.543-.259,25.527,15.668,54.98,15.668s32.072-15.877,54.98-15.668" transform="translate(21972.963 -2856)" fill="none" stroke="#0dacc5" stroke-width="1"></path><path id="Path_4894" data-name="Path 4894" d="M-21863,2856c23.543-.259,25.527,15.668,54.98,15.668s32.072-15.877,54.98-15.668" transform="translate(22080.963 -2856)" fill="none" stroke="#0dacc5" stroke-width="1"></path></g><g id="Group_4166" data-name="Group 4166" transform="translate(0 7.579)"><path id="Path_4895" data-name="Path 4895" d="M-21863,2856c23.543-.259,25.527,15.668,54.98,15.668s32.072-15.877,54.98-15.668" transform="translate(21862.998 -2856)" fill="none" stroke="#0dacc5" stroke-width="1"></path><path id="Path_4896" data-name="Path 4896" d="M-21863,2856c23.543-.259,25.527,15.668,54.98,15.668s32.072-15.877,54.98-15.668" transform="translate(21972.963 -2856)" fill="none" stroke="#0dacc5" stroke-width="1"></path><path id="Path_4897" data-name="Path 4897" d="M-21863,2856c23.543-.259,25.527,15.668,54.98,15.668s32.072-15.877,54.98-15.668" transform="translate(22080.963 -2856)" fill="none" stroke="#0dacc5" stroke-width="1"></path></g><g id="Group_4167" data-name="Group 4167" transform="translate(0 15.665)"><path id="Path_4898" data-name="Path 4898" d="M-21863,2856c23.543-.259,25.527,15.668,54.98,15.668s32.072-15.877,54.98-15.668" transform="translate(21862.998 -2856)" fill="none" stroke="#0dacc5" stroke-width="1"></path><path id="Path_4899" data-name="Path 4899" d="M-21863,2856c23.543-.259,25.527,15.668,54.98,15.668s32.072-15.877,54.98-15.668" transform="translate(21972.963 -2856)" fill="none" stroke="#0dacc5" stroke-width="1"></path><path id="Path_4900" data-name="Path 4900" d="M-21863,2856c23.543-.259,25.527,15.668,54.98,15.668s32.072-15.877,54.98-15.668" transform="translate(22080.963 -2856)" fill="none" stroke="#0dacc5" stroke-width="1"></path></g></g><g id="Group_4172" data-name="Group 4172" transform="translate(327.927 23.502)"><g id="Group_4169" data-name="Group 4169"><path id="Path_4901" data-name="Path 4901" d="M-21863,2856c23.543-.259,25.527,15.668,54.98,15.668s32.072-15.877,54.98-15.668" transform="translate(21862.998 -2856)" fill="none" stroke="#0dacc5" stroke-width="1"></path><path id="Path_4902" data-name="Path 4902" d="M-21863,2856c23.543-.259,25.527,15.668,54.98,15.668s32.072-15.877,54.98-15.668" transform="translate(21972.963 -2856)" fill="none" stroke="#0dacc5" stroke-width="1"></path><path id="Path_4903" data-name="Path 4903" d="M-21863,2856c23.543-.259,25.527,15.668,54.98,15.668s32.072-15.877,54.98-15.668" transform="translate(22080.963 -2856)" fill="none" stroke="#0dacc5" stroke-width="1"></path></g><g id="Group_4170" data-name="Group 4170" transform="translate(0 7.579)"><path id="Path_4904" data-name="Path 4904" d="M-21863,2856c23.543-.259,25.527,15.668,54.98,15.668s32.072-15.877,54.98-15.668" transform="translate(21862.998 -2856)" fill="none" stroke="#0dacc5" stroke-width="1"></path><path id="Path_4905" data-name="Path 4905" d="M-21863,2856c23.543-.259,25.527,15.668,54.98,15.668s32.072-15.877,54.98-15.668" transform="translate(21972.963 -2856)" fill="none" stroke="#0dacc5" stroke-width="1"></path><path id="Path_4906" data-name="Path 4906" d="M-21863,2856c23.543-.259,25.527,15.668,54.98,15.668s32.072-15.877,54.98-15.668" transform="translate(22080.963 -2856)" fill="none" stroke="#0dacc5" stroke-width="1"></path></g><g id="Group_4171" data-name="Group 4171" transform="translate(0 15.665)"><path id="Path_4907" data-name="Path 4907" d="M-21863,2856c23.543-.259,25.527,15.668,54.98,15.668s32.072-15.877,54.98-15.668" transform="translate(21862.998 -2856)" fill="none" stroke="#0dacc5" stroke-width="1"></path><path id="Path_4908" data-name="Path 4908" d="M-21863,2856c23.543-.259,25.527,15.668,54.98,15.668s32.072-15.877,54.98-15.668" transform="translate(21972.963 -2856)" fill="none" stroke="#0dacc5" stroke-width="1"></path><path id="Path_4909" data-name="Path 4909" d="M-21863,2856c23.543-.259,25.527,15.668,54.98,15.668s32.072-15.877,54.98-15.668" transform="translate(22080.963 -2856)" fill="none" stroke="#0dacc5" stroke-width="1"></path></g></g><g id="Group_4176" data-name="Group 4176" transform="translate(327.927 47.005)"><g id="Group_4173" data-name="Group 4173"><path id="Path_4910" data-name="Path 4910" d="M-21863,2856c23.543-.259,25.527,15.668,54.98,15.668s32.072-15.877,54.98-15.668" transform="translate(21862.998 -2856)" fill="none" stroke="#0dacc5" stroke-width="1"></path><path id="Path_4911" data-name="Path 4911" d="M-21863,2856c23.543-.259,25.527,15.668,54.98,15.668s32.072-15.877,54.98-15.668" transform="translate(21972.963 -2856)" fill="none" stroke="#0dacc5" stroke-width="1"></path><path id="Path_4912" data-name="Path 4912" d="M-21863,2856c23.543-.259,25.527,15.668,54.98,15.668s32.072-15.877,54.98-15.668" transform="translate(22080.963 -2856)" fill="none" stroke="#0dacc5" stroke-width="1"></path></g><g id="Group_4174" data-name="Group 4174" transform="translate(0 7.579)"><path id="Path_4913" data-name="Path 4913" d="M-21863,2856c23.543-.259,25.527,15.668,54.98,15.668s32.072-15.877,54.98-15.668" transform="translate(21862.998 -2856)" fill="none" stroke="#0dacc5" stroke-width="1"></path><path id="Path_4914" data-name="Path 4914" d="M-21863,2856c23.543-.259,25.527,15.668,54.98,15.668s32.072-15.877,54.98-15.668" transform="translate(21972.963 -2856)" fill="none" stroke="#0dacc5" stroke-width="1"></path><path id="Path_4915" data-name="Path 4915" d="M-21863,2856c23.543-.259,25.527,15.668,54.98,15.668s32.072-15.877,54.98-15.668" transform="translate(22080.963 -2856)" fill="none" stroke="#0dacc5" stroke-width="1"></path></g><g id="Group_4175" data-name="Group 4175" transform="translate(0 15.665)"><path id="Path_4916" data-name="Path 4916" d="M-21863,2856c23.543-.259,25.527,15.668,54.98,15.668s32.072-15.877,54.98-15.668" transform="translate(21862.998 -2856)" fill="none" stroke="#0dacc5" stroke-width="1"></path><path id="Path_4917" data-name="Path 4917" d="M-21863,2856c23.543-.259,25.527,15.668,54.98,15.668s32.072-15.877,54.98-15.668" transform="translate(21972.963 -2856)" fill="none" stroke="#0dacc5" stroke-width="1"></path><path id="Path_4918" data-name="Path 4918" d="M-21863,2856c23.543-.259,25.527,15.668,54.98,15.668s32.072-15.877,54.98-15.668" transform="translate(22080.963 -2856)" fill="none" stroke="#0dacc5" stroke-width="1"></path></g></g><g id="Group_4180" data-name="Group 4180" transform="translate(327.927 70.507)"><g id="Group_4177" data-name="Group 4177"><path id="Path_4919" data-name="Path 4919" d="M-21863,2856c23.543-.259,25.527,15.668,54.98,15.668s32.072-15.877,54.98-15.668" transform="translate(21862.998 -2856)" fill="none" stroke="#0dacc5" stroke-width="1"></path><path id="Path_4920" data-name="Path 4920" d="M-21863,2856c23.543-.259,25.527,15.668,54.98,15.668s32.072-15.877,54.98-15.668" transform="translate(21972.963 -2856)" fill="none" stroke="#0dacc5" stroke-width="1"></path><path id="Path_4921" data-name="Path 4921" d="M-21863,2856c23.543-.259,25.527,15.668,54.98,15.668s32.072-15.877,54.98-15.668" transform="translate(22080.963 -2856)" fill="none" stroke="#0dacc5" stroke-width="1"></path></g><g id="Group_4178" data-name="Group 4178" transform="translate(0 7.579)"><path id="Path_4922" data-name="Path 4922" d="M-21863,2856c23.543-.259,25.527,15.668,54.98,15.668s32.072-15.877,54.98-15.668" transform="translate(21862.998 -2856)" fill="none" stroke="#0dacc5" stroke-width="1"></path><path id="Path_4923" data-name="Path 4923" d="M-21863,2856c23.543-.259,25.527,15.668,54.98,15.668s32.072-15.877,54.98-15.668" transform="translate(21972.963 -2856)" fill="none" stroke="#0dacc5" stroke-width="1"></path><path id="Path_4924" data-name="Path 4924" d="M-21863,2856c23.543-.259,25.527,15.668,54.98,15.668s32.072-15.877,54.98-15.668" transform="translate(22080.963 -2856)" fill="none" stroke="#0dacc5" stroke-width="1"></path></g><g id="Group_4179" data-name="Group 4179" transform="translate(0 15.665)"><path id="Path_4925" data-name="Path 4925" d="M-21863,2856c23.543-.259,25.527,15.668,54.98,15.668s32.072-15.877,54.98-15.668" transform="translate(21862.998 -2856)" fill="none" stroke="#0dacc5" stroke-width="1"></path><path id="Path_4926" data-name="Path 4926" d="M-21863,2856c23.543-.259,25.527,15.668,54.98,15.668s32.072-15.877,54.98-15.668" transform="translate(21972.963 -2856)" fill="none" stroke="#0dacc5" stroke-width="1"></path><path id="Path_4927" data-name="Path 4927" d="M-21863,2856c23.543-.259,25.527,15.668,54.98,15.668s32.072-15.877,54.98-15.668" transform="translate(22080.963 -2856)" fill="none" stroke="#0dacc5" stroke-width="1"></path></g></g><g id="Group_4184" data-name="Group 4184" transform="translate(327.927 94.009)"><g id="Group_4181" data-name="Group 4181"><path id="Path_4928" data-name="Path 4928" d="M-21863,2856c23.543-.259,25.527,15.668,54.98,15.668s32.072-15.877,54.98-15.668" transform="translate(21862.998 -2856)" fill="none" stroke="#0dacc5" stroke-width="1"></path><path id="Path_4929" data-name="Path 4929" d="M-21863,2856c23.543-.259,25.527,15.668,54.98,15.668s32.072-15.877,54.98-15.668" transform="translate(21972.963 -2856)" fill="none" stroke="#0dacc5" stroke-width="1"></path><path id="Path_4930" data-name="Path 4930" d="M-21863,2856c23.543-.259,25.527,15.668,54.98,15.668s32.072-15.877,54.98-15.668" transform="translate(22080.963 -2856)" fill="none" stroke="#0dacc5" stroke-width="1"></path></g><g id="Group_4182" data-name="Group 4182" transform="translate(0 7.579)"><path id="Path_4931" data-name="Path 4931" d="M-21863,2856c23.543-.259,25.527,15.668,54.98,15.668s32.072-15.877,54.98-15.668" transform="translate(21862.998 -2856)" fill="none" stroke="#0dacc5" stroke-width="1"></path><path id="Path_4932" data-name="Path 4932" d="M-21863,2856c23.543-.259,25.527,15.668,54.98,15.668s32.072-15.877,54.98-15.668" transform="translate(21972.963 -2856)" fill="none" stroke="#0dacc5" stroke-width="1"></path><path id="Path_4933" data-name="Path 4933" d="M-21863,2856c23.543-.259,25.527,15.668,54.98,15.668s32.072-15.877,54.98-15.668" transform="translate(22080.963 -2856)" fill="none" stroke="#0dacc5" stroke-width="1"></path></g><g id="Group_4183" data-name="Group 4183" transform="translate(0 15.665)"><path id="Path_4934" data-name="Path 4934" d="M-21863,2856c23.543-.259,25.527,15.668,54.98,15.668s32.072-15.877,54.98-15.668" transform="translate(21862.998 -2856)" fill="none" stroke="#0dacc5" stroke-width="1"></path><path id="Path_4935" data-name="Path 4935" d="M-21863,2856c23.543-.259,25.527,15.668,54.98,15.668s32.072-15.877,54.98-15.668" transform="translate(21972.963 -2856)" fill="none" stroke="#0dacc5" stroke-width="1"></path><path id="Path_4936" data-name="Path 4936" d="M-21863,2856c23.543-.259,25.527,15.668,54.98,15.668s32.072-15.877,54.98-15.668" transform="translate(22080.963 -2856)" fill="none" stroke="#0dacc5" stroke-width="1"></path></g></g><g id="Group_4188" data-name="Group 4188" transform="translate(327.927 117.512)"><g id="Group_4185" data-name="Group 4185"><path id="Path_4937" data-name="Path 4937" d="M-21863,2856c23.543-.259,25.527,15.668,54.98,15.668s32.072-15.877,54.98-15.668" transform="translate(21862.998 -2856)" fill="none" stroke="#0dacc5" stroke-width="1"></path><path id="Path_4938" data-name="Path 4938" d="M-21863,2856c23.543-.259,25.527,15.668,54.98,15.668s32.072-15.877,54.98-15.668" transform="translate(21972.963 -2856)" fill="none" stroke="#0dacc5" stroke-width="1"></path><path id="Path_4939" data-name="Path 4939" d="M-21863,2856c23.543-.259,25.527,15.668,54.98,15.668s32.072-15.877,54.98-15.668" transform="translate(22080.963 -2856)" fill="none" stroke="#0dacc5" stroke-width="1"></path></g><g id="Group_4186" data-name="Group 4186" transform="translate(0 7.579)"><path id="Path_4940" data-name="Path 4940" d="M-21863,2856c23.543-.259,25.527,15.668,54.98,15.668s32.072-15.877,54.98-15.668" transform="translate(21862.998 -2856)" fill="none" stroke="#0dacc5" stroke-width="1"></path><path id="Path_4941" data-name="Path 4941" d="M-21863,2856c23.543-.259,25.527,15.668,54.98,15.668s32.072-15.877,54.98-15.668" transform="translate(21972.963 -2856)" fill="none" stroke="#0dacc5" stroke-width="1"></path><path id="Path_4942" data-name="Path 4942" d="M-21863,2856c23.543-.259,25.527,15.668,54.98,15.668s32.072-15.877,54.98-15.668" transform="translate(22080.963 -2856)" fill="none" stroke="#0dacc5" stroke-width="1"></path></g><g id="Group_4187" data-name="Group 4187" transform="translate(0 15.665)"><path id="Path_4943" data-name="Path 4943" d="M-21863,2856c23.543-.259,25.527,15.668,54.98,15.668s32.072-15.877,54.98-15.668" transform="translate(21862.998 -2856)" fill="none" stroke="#0dacc5" stroke-width="1"></path><path id="Path_4944" data-name="Path 4944" d="M-21863,2856c23.543-.259,25.527,15.668,54.98,15.668s32.072-15.877,54.98-15.668" transform="translate(21972.963 -2856)" fill="none" stroke="#0dacc5" stroke-width="1"></path><path id="Path_4945" data-name="Path 4945" d="M-21863,2856c23.543-.259,25.527,15.668,54.98,15.668s32.072-15.877,54.98-15.668" transform="translate(22080.963 -2856)" fill="none" stroke="#0dacc5" stroke-width="1"></path></g></g><g id="Group_4192" data-name="Group 4192" transform="translate(327.927 141.014)"><g id="Group_4189" data-name="Group 4189"><path id="Path_4946" data-name="Path 4946" d="M-21863,2856c23.543-.259,25.527,15.668,54.98,15.668s32.072-15.877,54.98-15.668" transform="translate(21862.998 -2856)" fill="none" stroke="#0dacc5" stroke-width="1"></path><path id="Path_4947" data-name="Path 4947" d="M-21863,2856c23.543-.259,25.527,15.668,54.98,15.668s32.072-15.877,54.98-15.668" transform="translate(21972.963 -2856)" fill="none" stroke="#0dacc5" stroke-width="1"></path><path id="Path_4948" data-name="Path 4948" d="M-21863,2856c23.543-.259,25.527,15.668,54.98,15.668s32.072-15.877,54.98-15.668" transform="translate(22080.963 -2856)" fill="none" stroke="#0dacc5" stroke-width="1"></path></g><g id="Group_4190" data-name="Group 4190" transform="translate(0 7.579)"><path id="Path_4949" data-name="Path 4949" d="M-21863,2856c23.543-.259,25.527,15.668,54.98,15.668s32.072-15.877,54.98-15.668" transform="translate(21862.998 -2856)" fill="none" stroke="#0dacc5" stroke-width="1"></path><path id="Path_4950" data-name="Path 4950" d="M-21863,2856c23.543-.259,25.527,15.668,54.98,15.668s32.072-15.877,54.98-15.668" transform="translate(21972.963 -2856)" fill="none" stroke="#0dacc5" stroke-width="1"></path><path id="Path_4951" data-name="Path 4951" d="M-21863,2856c23.543-.259,25.527,15.668,54.98,15.668s32.072-15.877,54.98-15.668" transform="translate(22080.963 -2856)" fill="none" stroke="#0dacc5" stroke-width="1"></path></g><g id="Group_4191" data-name="Group 4191" transform="translate(0 15.665)"><path id="Path_4952" data-name="Path 4952" d="M-21863,2856c23.543-.259,25.527,15.668,54.98,15.668s32.072-15.877,54.98-15.668" transform="translate(21862.998 -2856)" fill="none" stroke="#0dacc5" stroke-width="1"></path><path id="Path_4953" data-name="Path 4953" d="M-21863,2856c23.543-.259,25.527,15.668,54.98,15.668s32.072-15.877,54.98-15.668" transform="translate(21972.963 -2856)" fill="none" stroke="#0dacc5" stroke-width="1"></path><path id="Path_4954" data-name="Path 4954" d="M-21863,2856c23.543-.259,25.527,15.668,54.98,15.668s32.072-15.877,54.98-15.668" transform="translate(22080.963 -2856)" fill="none" stroke="#0dacc5" stroke-width="1"></path></g></g><g id="Group_4201" data-name="Group 4201" transform="translate(0 164.516)"><g id="Group_4196" data-name="Group 4196"><g id="Group_4193" data-name="Group 4193"><path id="Path_4955" data-name="Path 4955" d="M-21863,2856c23.543-.259,25.527,15.668,54.98,15.668s32.072-15.877,54.98-15.668" transform="translate(21862.998 -2856)" fill="none" stroke="#0dacc5" stroke-width="1"></path><path id="Path_4956" data-name="Path 4956" d="M-21863,2856c23.543-.259,25.527,15.668,54.98,15.668s32.072-15.877,54.98-15.668" transform="translate(21972.963 -2856)" fill="none" stroke="#0dacc5" stroke-width="1"></path><path id="Path_4957" data-name="Path 4957" d="M-21863,2856c23.543-.259,25.527,15.668,54.98,15.668s32.072-15.877,54.98-15.668" transform="translate(22080.963 -2856)" fill="none" stroke="#0dacc5" stroke-width="1"></path></g><g id="Group_4194" data-name="Group 4194" transform="translate(0 7.579)"><path id="Path_4958" data-name="Path 4958" d="M-21863,2856c23.543-.259,25.527,15.668,54.98,15.668s32.072-15.877,54.98-15.668" transform="translate(21862.998 -2856)" fill="none" stroke="#0dacc5" stroke-width="1"></path><path id="Path_4959" data-name="Path 4959" d="M-21863,2856c23.543-.259,25.527,15.668,54.98,15.668s32.072-15.877,54.98-15.668" transform="translate(21972.963 -2856)" fill="none" stroke="#0dacc5" stroke-width="1"></path><path id="Path_4960" data-name="Path 4960" d="M-21863,2856c23.543-.259,25.527,15.668,54.98,15.668s32.072-15.877,54.98-15.668" transform="translate(22080.963 -2856)" fill="none" stroke="#0dacc5" stroke-width="1"></path></g><g id="Group_4195" data-name="Group 4195" transform="translate(0 15.665)"><path id="Path_4961" data-name="Path 4961" d="M-21863,2856c23.543-.259,25.527,15.668,54.98,15.668s32.072-15.877,54.98-15.668" transform="translate(21862.998 -2856)" fill="none" stroke="#0dacc5" stroke-width="1"></path><path id="Path_4962" data-name="Path 4962" d="M-21863,2856c23.543-.259,25.527,15.668,54.98,15.668s32.072-15.877,54.98-15.668" transform="translate(21972.963 -2856)" fill="none" stroke="#0dacc5" stroke-width="1"></path><path id="Path_4963" data-name="Path 4963" d="M-21863,2856c23.543-.259,25.527,15.668,54.98,15.668s32.072-15.877,54.98-15.668" transform="translate(22080.963 -2856)" fill="none" stroke="#0dacc5" stroke-width="1"></path></g></g><g id="Group_4200" data-name="Group 4200" transform="translate(327.927)"><g id="Group_4197" data-name="Group 4197"><path id="Path_4964" data-name="Path 4964" d="M-21863,2856c23.543-.259,25.527,15.668,54.98,15.668s32.072-15.877,54.98-15.668" transform="translate(21862.998 -2856)" fill="none" stroke="#0dacc5" stroke-width="1"></path><path id="Path_4965" data-name="Path 4965" d="M-21863,2856c23.543-.259,25.527,15.668,54.98,15.668s32.072-15.877,54.98-15.668" transform="translate(21972.963 -2856)" fill="none" stroke="#0dacc5" stroke-width="1"></path><path id="Path_4966" data-name="Path 4966" d="M-21863,2856c23.543-.259,25.527,15.668,54.98,15.668s32.072-15.877,54.98-15.668" transform="translate(22080.963 -2856)" fill="none" stroke="#0dacc5" stroke-width="1"></path></g><g id="Group_4198" data-name="Group 4198" transform="translate(0 7.579)"><path id="Path_4967" data-name="Path 4967" d="M-21863,2856c23.543-.259,25.527,15.668,54.98,15.668s32.072-15.877,54.98-15.668" transform="translate(21862.998 -2856)" fill="none" stroke="#0dacc5" stroke-width="1"></path><path id="Path_4968" data-name="Path 4968" d="M-21863,2856c23.543-.259,25.527,15.668,54.98,15.668s32.072-15.877,54.98-15.668" transform="translate(21972.963 -2856)" fill="none" stroke="#0dacc5" stroke-width="1"></path><path id="Path_4969" data-name="Path 4969" d="M-21863,2856c23.543-.259,25.527,15.668,54.98,15.668s32.072-15.877,54.98-15.668" transform="translate(22080.963 -2856)" fill="none" stroke="#0dacc5" stroke-width="1"></path></g><g id="Group_4199" data-name="Group 4199" transform="translate(0 15.665)"><path id="Path_4970" data-name="Path 4970" d="M-21863,2856c23.543-.259,25.527,15.668,54.98,15.668s32.072-15.877,54.98-15.668" transform="translate(21862.998 -2856)" fill="none" stroke="#0dacc5" stroke-width="1"></path><path id="Path_4971" data-name="Path 4971" d="M-21863,2856c23.543-.259,25.527,15.668,54.98,15.668s32.072-15.877,54.98-15.668" transform="translate(21972.963 -2856)" fill="none" stroke="#0dacc5" stroke-width="1"></path><path id="Path_4972" data-name="Path 4972" d="M-21863,2856c23.543-.259,25.527,15.668,54.98,15.668s32.072-15.877,54.98-15.668" transform="translate(22080.963 -2856)" fill="none" stroke="#0dacc5" stroke-width="1"></path></g></g></g><g id="Group_4210" data-name="Group 4210" transform="translate(0 188.018)"><g id="Group_4205" data-name="Group 4205"><g id="Group_4202" data-name="Group 4202"><path id="Path_4973" data-name="Path 4973" d="M-21863,2856c23.543-.259,25.527,15.668,54.98,15.668s32.072-15.877,54.98-15.668" transform="translate(21862.998 -2856)" fill="none" stroke="#0dacc5" stroke-width="1"></path><path id="Path_4974" data-name="Path 4974" d="M-21863,2856c23.543-.259,25.527,15.668,54.98,15.668s32.072-15.877,54.98-15.668" transform="translate(21972.963 -2856)" fill="none" stroke="#0dacc5" stroke-width="1"></path><path id="Path_4975" data-name="Path 4975" d="M-21863,2856c23.543-.259,25.527,15.668,54.98,15.668s32.072-15.877,54.98-15.668" transform="translate(22080.963 -2856)" fill="none" stroke="#0dacc5" stroke-width="1"></path></g><g id="Group_4203" data-name="Group 4203" transform="translate(0 7.579)"><path id="Path_4976" data-name="Path 4976" d="M-21863,2856c23.543-.259,25.527,15.668,54.98,15.668s32.072-15.877,54.98-15.668" transform="translate(21862.998 -2856)" fill="none" stroke="#0dacc5" stroke-width="1"></path><path id="Path_4977" data-name="Path 4977" d="M-21863,2856c23.543-.259,25.527,15.668,54.98,15.668s32.072-15.877,54.98-15.668" transform="translate(21972.963 -2856)" fill="none" stroke="#0dacc5" stroke-width="1"></path><path id="Path_4978" data-name="Path 4978" d="M-21863,2856c23.543-.259,25.527,15.668,54.98,15.668s32.072-15.877,54.98-15.668" transform="translate(22080.963 -2856)" fill="none" stroke="#0dacc5" stroke-width="1"></path></g><g id="Group_4204" data-name="Group 4204" transform="translate(0 15.665)"><path id="Path_4979" data-name="Path 4979" d="M-21863,2856c23.543-.259,25.527,15.668,54.98,15.668s32.072-15.877,54.98-15.668" transform="translate(21862.998 -2856)" fill="none" stroke="#0dacc5" stroke-width="1"></path><path id="Path_4980" data-name="Path 4980" d="M-21863,2856c23.543-.259,25.527,15.668,54.98,15.668s32.072-15.877,54.98-15.668" transform="translate(21972.963 -2856)" fill="none" stroke="#0dacc5" stroke-width="1"></path><path id="Path_4981" data-name="Path 4981" d="M-21863,2856c23.543-.259,25.527,15.668,54.98,15.668s32.072-15.877,54.98-15.668" transform="translate(22080.963 -2856)" fill="none" stroke="#0dacc5" stroke-width="1"></path></g></g><g id="Group_4209" data-name="Group 4209" transform="translate(327.927)"><g id="Group_4206" data-name="Group 4206"><path id="Path_4982" data-name="Path 4982" d="M-21863,2856c23.543-.259,25.527,15.668,54.98,15.668s32.072-15.877,54.98-15.668" transform="translate(21862.998 -2856)" fill="none" stroke="#0dacc5" stroke-width="1"></path><path id="Path_4983" data-name="Path 4983" d="M-21863,2856c23.543-.259,25.527,15.668,54.98,15.668s32.072-15.877,54.98-15.668" transform="translate(21972.963 -2856)" fill="none" stroke="#0dacc5" stroke-width="1"></path><path id="Path_4984" data-name="Path 4984" d="M-21863,2856c23.543-.259,25.527,15.668,54.98,15.668s32.072-15.877,54.98-15.668" transform="translate(22080.963 -2856)" fill="none" stroke="#0dacc5" stroke-width="1"></path></g><g id="Group_4207" data-name="Group 4207" transform="translate(0 7.579)"><path id="Path_4985" data-name="Path 4985" d="M-21863,2856c23.543-.259,25.527,15.668,54.98,15.668s32.072-15.877,54.98-15.668" transform="translate(21862.998 -2856)" fill="none" stroke="#0dacc5" stroke-width="1"></path><path id="Path_4986" data-name="Path 4986" d="M-21863,2856c23.543-.259,25.527,15.668,54.98,15.668s32.072-15.877,54.98-15.668" transform="translate(21972.963 -2856)" fill="none" stroke="#0dacc5" stroke-width="1"></path><path id="Path_4987" data-name="Path 4987" d="M-21863,2856c23.543-.259,25.527,15.668,54.98,15.668s32.072-15.877,54.98-15.668" transform="translate(22080.963 -2856)" fill="none" stroke="#0dacc5" stroke-width="1"></path></g><g id="Group_4208" data-name="Group 4208" transform="translate(0 15.665)"><path id="Path_4988" data-name="Path 4988" d="M-21863,2856c23.543-.259,25.527,15.668,54.98,15.668s32.072-15.877,54.98-15.668" transform="translate(21862.998 -2856)" fill="none" stroke="#0dacc5" stroke-width="1"></path><path id="Path_4989" data-name="Path 4989" d="M-21863,2856c23.543-.259,25.527,15.668,54.98,15.668s32.072-15.877,54.98-15.668" transform="translate(21972.963 -2856)" fill="none" stroke="#0dacc5" stroke-width="1"></path><path id="Path_4990" data-name="Path 4990" d="M-21863,2856c23.543-.259,25.527,15.668,54.98,15.668s32.072-15.877,54.98-15.668" transform="translate(22080.963 -2856)" fill="none" stroke="#0dacc5" stroke-width="1"></path></g></g></g><g id="Group_4219" data-name="Group 4219" transform="translate(0 211.521)"><g id="Group_4214" data-name="Group 4214"><g id="Group_4211" data-name="Group 4211"><path id="Path_4991" data-name="Path 4991" d="M-21863,2856c23.543-.259,25.527,15.668,54.98,15.668s32.072-15.877,54.98-15.668" transform="translate(21862.998 -2856)" fill="none" stroke="#0dacc5" stroke-width="1"></path><path id="Path_4992" data-name="Path 4992" d="M-21863,2856c23.543-.259,25.527,15.668,54.98,15.668s32.072-15.877,54.98-15.668" transform="translate(21972.963 -2856)" fill="none" stroke="#0dacc5" stroke-width="1"></path><path id="Path_4993" data-name="Path 4993" d="M-21863,2856c23.543-.259,25.527,15.668,54.98,15.668s32.072-15.877,54.98-15.668" transform="translate(22080.963 -2856)" fill="none" stroke="#0dacc5" stroke-width="1"></path></g><g id="Group_4212" data-name="Group 4212" transform="translate(0 7.579)"><path id="Path_4994" data-name="Path 4994" d="M-21863,2856c23.543-.259,25.527,15.668,54.98,15.668s32.072-15.877,54.98-15.668" transform="translate(21862.998 -2856)" fill="none" stroke="#0dacc5" stroke-width="1"></path><path id="Path_4995" data-name="Path 4995" d="M-21863,2856c23.543-.259,25.527,15.668,54.98,15.668s32.072-15.877,54.98-15.668" transform="translate(21972.963 -2856)" fill="none" stroke="#0dacc5" stroke-width="1"></path><path id="Path_4996" data-name="Path 4996" d="M-21863,2856c23.543-.259,25.527,15.668,54.98,15.668s32.072-15.877,54.98-15.668" transform="translate(22080.963 -2856)" fill="none" stroke="#0dacc5" stroke-width="1"></path></g><g id="Group_4213" data-name="Group 4213" transform="translate(0 15.665)"><path id="Path_4997" data-name="Path 4997" d="M-21863,2856c23.543-.259,25.527,15.668,54.98,15.668s32.072-15.877,54.98-15.668" transform="translate(21862.998 -2856)" fill="none" stroke="#0dacc5" stroke-width="1"></path><path id="Path_4998" data-name="Path 4998" d="M-21863,2856c23.543-.259,25.527,15.668,54.98,15.668s32.072-15.877,54.98-15.668" transform="translate(21972.963 -2856)" fill="none" stroke="#0dacc5" stroke-width="1"></path><path id="Path_4999" data-name="Path 4999" d="M-21863,2856c23.543-.259,25.527,15.668,54.98,15.668s32.072-15.877,54.98-15.668" transform="translate(22080.963 -2856)" fill="none" stroke="#0dacc5" stroke-width="1"></path></g></g><g id="Group_4218" data-name="Group 4218" transform="translate(327.927)"><g id="Group_4215" data-name="Group 4215"><path id="Path_5000" data-name="Path 5000" d="M-21863,2856c23.543-.259,25.527,15.668,54.98,15.668s32.072-15.877,54.98-15.668" transform="translate(21862.998 -2856)" fill="none" stroke="#0dacc5" stroke-width="1"></path><path id="Path_5001" data-name="Path 5001" d="M-21863,2856c23.543-.259,25.527,15.668,54.98,15.668s32.072-15.877,54.98-15.668" transform="translate(21972.963 -2856)" fill="none" stroke="#0dacc5" stroke-width="1"></path><path id="Path_5002" data-name="Path 5002" d="M-21863,2856c23.543-.259,25.527,15.668,54.98,15.668s32.072-15.877,54.98-15.668" transform="translate(22080.963 -2856)" fill="none" stroke="#0dacc5" stroke-width="1"></path></g><g id="Group_4216" data-name="Group 4216" transform="translate(0 7.579)"><path id="Path_5003" data-name="Path 5003" d="M-21863,2856c23.543-.259,25.527,15.668,54.98,15.668s32.072-15.877,54.98-15.668" transform="translate(21862.998 -2856)" fill="none" stroke="#0dacc5" stroke-width="1"></path><path id="Path_5004" data-name="Path 5004" d="M-21863,2856c23.543-.259,25.527,15.668,54.98,15.668s32.072-15.877,54.98-15.668" transform="translate(21972.963 -2856)" fill="none" stroke="#0dacc5" stroke-width="1"></path><path id="Path_5005" data-name="Path 5005" d="M-21863,2856c23.543-.259,25.527,15.668,54.98,15.668s32.072-15.877,54.98-15.668" transform="translate(22080.963 -2856)" fill="none" stroke="#0dacc5" stroke-width="1"></path></g><g id="Group_4217" data-name="Group 4217" transform="translate(0 15.665)"><path id="Path_5006" data-name="Path 5006" d="M-21863,2856c23.543-.259,25.527,15.668,54.98,15.668s32.072-15.877,54.98-15.668" transform="translate(21862.998 -2856)" fill="none" stroke="#0dacc5" stroke-width="1"></path><path id="Path_5007" data-name="Path 5007" d="M-21863,2856c23.543-.259,25.527,15.668,54.98,15.668s32.072-15.877,54.98-15.668" transform="translate(21972.963 -2856)" fill="none" stroke="#0dacc5" stroke-width="1"></path><path id="Path_5008" data-name="Path 5008" d="M-21863,2856c23.543-.259,25.527,15.668,54.98,15.668s32.072-15.877,54.98-15.668" transform="translate(22080.963 -2856)" fill="none" stroke="#0dacc5" stroke-width="1"></path></g></g></g><g id="Group_4228" data-name="Group 4228" transform="translate(0 235.023)"><g id="Group_4223" data-name="Group 4223"><g id="Group_4220" data-name="Group 4220"><path id="Path_5009" data-name="Path 5009" d="M-21863,2856c23.543-.259,25.527,15.668,54.98,15.668s32.072-15.877,54.98-15.668" transform="translate(21862.998 -2856)" fill="none" stroke="#0dacc5" stroke-width="1"></path><path id="Path_5010" data-name="Path 5010" d="M-21863,2856c23.543-.259,25.527,15.668,54.98,15.668s32.072-15.877,54.98-15.668" transform="translate(21972.963 -2856)" fill="none" stroke="#0dacc5" stroke-width="1"></path><path id="Path_5011" data-name="Path 5011" d="M-21863,2856c23.543-.259,25.527,15.668,54.98,15.668s32.072-15.877,54.98-15.668" transform="translate(22080.963 -2856)" fill="none" stroke="#0dacc5" stroke-width="1"></path></g><g id="Group_4221" data-name="Group 4221" transform="translate(0 7.579)"><path id="Path_5012" data-name="Path 5012" d="M-21863,2856c23.543-.259,25.527,15.668,54.98,15.668s32.072-15.877,54.98-15.668" transform="translate(21862.998 -2856)" fill="none" stroke="#0dacc5" stroke-width="1"></path><path id="Path_5013" data-name="Path 5013" d="M-21863,2856c23.543-.259,25.527,15.668,54.98,15.668s32.072-15.877,54.98-15.668" transform="translate(21972.963 -2856)" fill="none" stroke="#0dacc5" stroke-width="1"></path><path id="Path_5014" data-name="Path 5014" d="M-21863,2856c23.543-.259,25.527,15.668,54.98,15.668s32.072-15.877,54.98-15.668" transform="translate(22080.963 -2856)" fill="none" stroke="#0dacc5" stroke-width="1"></path></g><g id="Group_4222" data-name="Group 4222" transform="translate(0 15.665)"><path id="Path_5015" data-name="Path 5015" d="M-21863,2856c23.543-.259,25.527,15.668,54.98,15.668s32.072-15.877,54.98-15.668" transform="translate(21862.998 -2856)" fill="none" stroke="#0dacc5" stroke-width="1"></path><path id="Path_5016" data-name="Path 5016" d="M-21863,2856c23.543-.259,25.527,15.668,54.98,15.668s32.072-15.877,54.98-15.668" transform="translate(21972.963 -2856)" fill="none" stroke="#0dacc5" stroke-width="1"></path><path id="Path_5017" data-name="Path 5017" d="M-21863,2856c23.543-.259,25.527,15.668,54.98,15.668s32.072-15.877,54.98-15.668" transform="translate(22080.963 -2856)" fill="none" stroke="#0dacc5" stroke-width="1"></path></g></g><g id="Group_4227" data-name="Group 4227" transform="translate(327.927)"><g id="Group_4224" data-name="Group 4224"><path id="Path_5018" data-name="Path 5018" d="M-21863,2856c23.543-.259,25.527,15.668,54.98,15.668s32.072-15.877,54.98-15.668" transform="translate(21862.998 -2856)" fill="none" stroke="#0dacc5" stroke-width="1"></path><path id="Path_5019" data-name="Path 5019" d="M-21863,2856c23.543-.259,25.527,15.668,54.98,15.668s32.072-15.877,54.98-15.668" transform="translate(21972.963 -2856)" fill="none" stroke="#0dacc5" stroke-width="1"></path><path id="Path_5020" data-name="Path 5020" d="M-21863,2856c23.543-.259,25.527,15.668,54.98,15.668s32.072-15.877,54.98-15.668" transform="translate(22080.963 -2856)" fill="none" stroke="#0dacc5" stroke-width="1"></path></g><g id="Group_4225" data-name="Group 4225" transform="translate(0 7.579)"><path id="Path_5021" data-name="Path 5021" d="M-21863,2856c23.543-.259,25.527,15.668,54.98,15.668s32.072-15.877,54.98-15.668" transform="translate(21862.998 -2856)" fill="none" stroke="#0dacc5" stroke-width="1"></path><path id="Path_5022" data-name="Path 5022" d="M-21863,2856c23.543-.259,25.527,15.668,54.98,15.668s32.072-15.877,54.98-15.668" transform="translate(21972.963 -2856)" fill="none" stroke="#0dacc5" stroke-width="1"></path><path id="Path_5023" data-name="Path 5023" d="M-21863,2856c23.543-.259,25.527,15.668,54.98,15.668s32.072-15.877,54.98-15.668" transform="translate(22080.963 -2856)" fill="none" stroke="#0dacc5" stroke-width="1"></path></g><g id="Group_4226" data-name="Group 4226" transform="translate(0 15.665)"><path id="Path_5024" data-name="Path 5024" d="M-21863,2856c23.543-.259,25.527,15.668,54.98,15.668s32.072-15.877,54.98-15.668" transform="translate(21862.998 -2856)" fill="none" stroke="#0dacc5" stroke-width="1"></path><path id="Path_5025" data-name="Path 5025" d="M-21863,2856c23.543-.259,25.527,15.668,54.98,15.668s32.072-15.877,54.98-15.668" transform="translate(21972.963 -2856)" fill="none" stroke="#0dacc5" stroke-width="1"></path><path id="Path_5026" data-name="Path 5026" d="M-21863,2856c23.543-.259,25.527,15.668,54.98,15.668s32.072-15.877,54.98-15.668" transform="translate(22080.963 -2856)" fill="none" stroke="#0dacc5" stroke-width="1"></path></g></g></g><g id="Group_4237" data-name="Group 4237" transform="translate(0 258.525)"><g id="Group_4232" data-name="Group 4232"><g id="Group_4229" data-name="Group 4229"><path id="Path_5027" data-name="Path 5027" d="M-21863,2856c23.543-.259,25.527,15.668,54.98,15.668s32.072-15.877,54.98-15.668" transform="translate(21862.998 -2856)" fill="none" stroke="#0dacc5" stroke-width="1"></path><path id="Path_5028" data-name="Path 5028" d="M-21863,2856c23.543-.259,25.527,15.668,54.98,15.668s32.072-15.877,54.98-15.668" transform="translate(21972.963 -2856)" fill="none" stroke="#0dacc5" stroke-width="1"></path><path id="Path_5029" data-name="Path 5029" d="M-21863,2856c23.543-.259,25.527,15.668,54.98,15.668s32.072-15.877,54.98-15.668" transform="translate(22080.963 -2856)" fill="none" stroke="#0dacc5" stroke-width="1"></path></g><g id="Group_4230" data-name="Group 4230" transform="translate(0 7.579)"><path id="Path_5030" data-name="Path 5030" d="M-21863,2856c23.543-.259,25.527,15.668,54.98,15.668s32.072-15.877,54.98-15.668" transform="translate(21862.998 -2856)" fill="none" stroke="#0dacc5" stroke-width="1"></path><path id="Path_5031" data-name="Path 5031" d="M-21863,2856c23.543-.259,25.527,15.668,54.98,15.668s32.072-15.877,54.98-15.668" transform="translate(21972.963 -2856)" fill="none" stroke="#0dacc5" stroke-width="1"></path><path id="Path_5032" data-name="Path 5032" d="M-21863,2856c23.543-.259,25.527,15.668,54.98,15.668s32.072-15.877,54.98-15.668" transform="translate(22080.963 -2856)" fill="none" stroke="#0dacc5" stroke-width="1"></path></g><g id="Group_4231" data-name="Group 4231" transform="translate(0 15.665)"><path id="Path_5033" data-name="Path 5033" d="M-21863,2856c23.543-.259,25.527,15.668,54.98,15.668s32.072-15.877,54.98-15.668" transform="translate(21862.998 -2856)" fill="none" stroke="#0dacc5" stroke-width="1"></path><path id="Path_5034" data-name="Path 5034" d="M-21863,2856c23.543-.259,25.527,15.668,54.98,15.668s32.072-15.877,54.98-15.668" transform="translate(21972.963 -2856)" fill="none" stroke="#0dacc5" stroke-width="1"></path><path id="Path_5035" data-name="Path 5035" d="M-21863,2856c23.543-.259,25.527,15.668,54.98,15.668s32.072-15.877,54.98-15.668" transform="translate(22080.963 -2856)" fill="none" stroke="#0dacc5" stroke-width="1"></path></g></g><g id="Group_4236" data-name="Group 4236" transform="translate(327.927)"><g id="Group_4233" data-name="Group 4233"><path id="Path_5036" data-name="Path 5036" d="M-21863,2856c23.543-.259,25.527,15.668,54.98,15.668s32.072-15.877,54.98-15.668" transform="translate(21862.998 -2856)" fill="none" stroke="#0dacc5" stroke-width="1"></path><path id="Path_5037" data-name="Path 5037" d="M-21863,2856c23.543-.259,25.527,15.668,54.98,15.668s32.072-15.877,54.98-15.668" transform="translate(21972.963 -2856)" fill="none" stroke="#0dacc5" stroke-width="1"></path><path id="Path_5038" data-name="Path 5038" d="M-21863,2856c23.543-.259,25.527,15.668,54.98,15.668s32.072-15.877,54.98-15.668" transform="translate(22080.963 -2856)" fill="none" stroke="#0dacc5" stroke-width="1"></path></g><g id="Group_4234" data-name="Group 4234" transform="translate(0 7.579)"><path id="Path_5039" data-name="Path 5039" d="M-21863,2856c23.543-.259,25.527,15.668,54.98,15.668s32.072-15.877,54.98-15.668" transform="translate(21862.998 -2856)" fill="none" stroke="#0dacc5" stroke-width="1"></path><path id="Path_5040" data-name="Path 5040" d="M-21863,2856c23.543-.259,25.527,15.668,54.98,15.668s32.072-15.877,54.98-15.668" transform="translate(21972.963 -2856)" fill="none" stroke="#0dacc5" stroke-width="1"></path><path id="Path_5041" data-name="Path 5041" d="M-21863,2856c23.543-.259,25.527,15.668,54.98,15.668s32.072-15.877,54.98-15.668" transform="translate(22080.963 -2856)" fill="none" stroke="#0dacc5" stroke-width="1"></path></g><g id="Group_4235" data-name="Group 4235" transform="translate(0 15.665)"><path id="Path_5042" data-name="Path 5042" d="M-21863,2856c23.543-.259,25.527,15.668,54.98,15.668s32.072-15.877,54.98-15.668" transform="translate(21862.998 -2856)" fill="none" stroke="#0dacc5" stroke-width="1"></path><path id="Path_5043" data-name="Path 5043" d="M-21863,2856c23.543-.259,25.527,15.668,54.98,15.668s32.072-15.877,54.98-15.668" transform="translate(21972.963 -2856)" fill="none" stroke="#0dacc5" stroke-width="1"></path><path id="Path_5044" data-name="Path 5044" d="M-21863,2856c23.543-.259,25.527,15.668,54.98,15.668s32.072-15.877,54.98-15.668" transform="translate(22080.963 -2856)" fill="none" stroke="#0dacc5" stroke-width="1"></path></g></g></g><g id="Group_4246" data-name="Group 4246" transform="translate(0 282.028)"><g id="Group_4241" data-name="Group 4241"><g id="Group_4238" data-name="Group 4238"><path id="Path_5045" data-name="Path 5045" d="M-21863,2856c23.543-.259,25.527,15.668,54.98,15.668s32.072-15.877,54.98-15.668" transform="translate(21862.998 -2856)" fill="none" stroke="#0dacc5" stroke-width="1"></path><path id="Path_5046" data-name="Path 5046" d="M-21863,2856c23.543-.259,25.527,15.668,54.98,15.668s32.072-15.877,54.98-15.668" transform="translate(21972.963 -2856)" fill="none" stroke="#0dacc5" stroke-width="1"></path><path id="Path_5047" data-name="Path 5047" d="M-21863,2856c23.543-.259,25.527,15.668,54.98,15.668s32.072-15.877,54.98-15.668" transform="translate(22080.963 -2856)" fill="none" stroke="#0dacc5" stroke-width="1"></path></g><g id="Group_4239" data-name="Group 4239" transform="translate(0 7.579)"><path id="Path_5048" data-name="Path 5048" d="M-21863,2856c23.543-.259,25.527,15.668,54.98,15.668s32.072-15.877,54.98-15.668" transform="translate(21862.998 -2856)" fill="none" stroke="#0dacc5" stroke-width="1"></path><path id="Path_5049" data-name="Path 5049" d="M-21863,2856c23.543-.259,25.527,15.668,54.98,15.668s32.072-15.877,54.98-15.668" transform="translate(21972.963 -2856)" fill="none" stroke="#0dacc5" stroke-width="1"></path><path id="Path_5050" data-name="Path 5050" d="M-21863,2856c23.543-.259,25.527,15.668,54.98,15.668s32.072-15.877,54.98-15.668" transform="translate(22080.963 -2856)" fill="none" stroke="#0dacc5" stroke-width="1"></path></g><g id="Group_4240" data-name="Group 4240" transform="translate(0 15.665)"><path id="Path_5051" data-name="Path 5051" d="M-21863,2856c23.543-.259,25.527,15.668,54.98,15.668s32.072-15.877,54.98-15.668" transform="translate(21862.998 -2856)" fill="none" stroke="#0dacc5" stroke-width="1"></path><path id="Path_5052" data-name="Path 5052" d="M-21863,2856c23.543-.259,25.527,15.668,54.98,15.668s32.072-15.877,54.98-15.668" transform="translate(21972.963 -2856)" fill="none" stroke="#0dacc5" stroke-width="1"></path><path id="Path_5053" data-name="Path 5053" d="M-21863,2856c23.543-.259,25.527,15.668,54.98,15.668s32.072-15.877,54.98-15.668" transform="translate(22080.963 -2856)" fill="none" stroke="#0dacc5" stroke-width="1"></path></g></g><g id="Group_4245" data-name="Group 4245" transform="translate(327.927)"><g id="Group_4242" data-name="Group 4242"><path id="Path_5054" data-name="Path 5054" d="M-21863,2856c23.543-.259,25.527,15.668,54.98,15.668s32.072-15.877,54.98-15.668" transform="translate(21862.998 -2856)" fill="none" stroke="#0dacc5" stroke-width="1"></path><path id="Path_5055" data-name="Path 5055" d="M-21863,2856c23.543-.259,25.527,15.668,54.98,15.668s32.072-15.877,54.98-15.668" transform="translate(21972.963 -2856)" fill="none" stroke="#0dacc5" stroke-width="1"></path><path id="Path_5056" data-name="Path 5056" d="M-21863,2856c23.543-.259,25.527,15.668,54.98,15.668s32.072-15.877,54.98-15.668" transform="translate(22080.963 -2856)" fill="none" stroke="#0dacc5" stroke-width="1"></path></g><g id="Group_4243" data-name="Group 4243" transform="translate(0 7.579)"><path id="Path_5057" data-name="Path 5057" d="M-21863,2856c23.543-.259,25.527,15.668,54.98,15.668s32.072-15.877,54.98-15.668" transform="translate(21862.998 -2856)" fill="none" stroke="#0dacc5" stroke-width="1"></path><path id="Path_5058" data-name="Path 5058" d="M-21863,2856c23.543-.259,25.527,15.668,54.98,15.668s32.072-15.877,54.98-15.668" transform="translate(21972.963 -2856)" fill="none" stroke="#0dacc5" stroke-width="1"></path><path id="Path_5059" data-name="Path 5059" d="M-21863,2856c23.543-.259,25.527,15.668,54.98,15.668s32.072-15.877,54.98-15.668" transform="translate(22080.963 -2856)" fill="none" stroke="#0dacc5" stroke-width="1"></path></g><g id="Group_4244" data-name="Group 4244" transform="translate(0 15.665)"><path id="Path_5060" data-name="Path 5060" d="M-21863,2856c23.543-.259,25.527,15.668,54.98,15.668s32.072-15.877,54.98-15.668" transform="translate(21862.998 -2856)" fill="none" stroke="#0dacc5" stroke-width="1"></path><path id="Path_5061" data-name="Path 5061" d="M-21863,2856c23.543-.259,25.527,15.668,54.98,15.668s32.072-15.877,54.98-15.668" transform="translate(21972.963 -2856)" fill="none" stroke="#0dacc5" stroke-width="1"></path><path id="Path_5062" data-name="Path 5062" d="M-21863,2856c23.543-.259,25.527,15.668,54.98,15.668s32.072-15.877,54.98-15.668" transform="translate(22080.963 -2856)" fill="none" stroke="#0dacc5" stroke-width="1"></path></g></g></g><g id="Group_4255" data-name="Group 4255" transform="translate(0 305.53)"><g id="Group_4250" data-name="Group 4250"><g id="Group_4247" data-name="Group 4247"><path id="Path_5063" data-name="Path 5063" d="M-21863,2856c23.543-.259,25.527,15.668,54.98,15.668s32.072-15.877,54.98-15.668" transform="translate(21862.998 -2856)" fill="none" stroke="#0dacc5" stroke-width="1"></path><path id="Path_5064" data-name="Path 5064" d="M-21863,2856c23.543-.259,25.527,15.668,54.98,15.668s32.072-15.877,54.98-15.668" transform="translate(21972.963 -2856)" fill="none" stroke="#0dacc5" stroke-width="1"></path><path id="Path_5065" data-name="Path 5065" d="M-21863,2856c23.543-.259,25.527,15.668,54.98,15.668s32.072-15.877,54.98-15.668" transform="translate(22080.963 -2856)" fill="none" stroke="#0dacc5" stroke-width="1"></path></g><g id="Group_4248" data-name="Group 4248" transform="translate(0 7.579)"><path id="Path_5066" data-name="Path 5066" d="M-21863,2856c23.543-.259,25.527,15.668,54.98,15.668s32.072-15.877,54.98-15.668" transform="translate(21862.998 -2856)" fill="none" stroke="#0dacc5" stroke-width="1"></path><path id="Path_5067" data-name="Path 5067" d="M-21863,2856c23.543-.259,25.527,15.668,54.98,15.668s32.072-15.877,54.98-15.668" transform="translate(21972.963 -2856)" fill="none" stroke="#0dacc5" stroke-width="1"></path><path id="Path_5068" data-name="Path 5068" d="M-21863,2856c23.543-.259,25.527,15.668,54.98,15.668s32.072-15.877,54.98-15.668" transform="translate(22080.963 -2856)" fill="none" stroke="#0dacc5" stroke-width="1"></path></g><g id="Group_4249" data-name="Group 4249" transform="translate(0 15.665)"><path id="Path_5069" data-name="Path 5069" d="M-21863,2856c23.543-.259,25.527,15.668,54.98,15.668s32.072-15.877,54.98-15.668" transform="translate(21862.998 -2856)" fill="none" stroke="#0dacc5" stroke-width="1"></path><path id="Path_5070" data-name="Path 5070" d="M-21863,2856c23.543-.259,25.527,15.668,54.98,15.668s32.072-15.877,54.98-15.668" transform="translate(21972.963 -2856)" fill="none" stroke="#0dacc5" stroke-width="1"></path><path id="Path_5071" data-name="Path 5071" d="M-21863,2856c23.543-.259,25.527,15.668,54.98,15.668s32.072-15.877,54.98-15.668" transform="translate(22080.963 -2856)" fill="none" stroke="#0dacc5" stroke-width="1"></path></g></g><g id="Group_4254" data-name="Group 4254" transform="translate(327.927)"><g id="Group_4251" data-name="Group 4251"><path id="Path_5072" data-name="Path 5072" d="M-21863,2856c23.543-.259,25.527,15.668,54.98,15.668s32.072-15.877,54.98-15.668" transform="translate(21862.998 -2856)" fill="none" stroke="#0dacc5" stroke-width="1"></path><path id="Path_5073" data-name="Path 5073" d="M-21863,2856c23.543-.259,25.527,15.668,54.98,15.668s32.072-15.877,54.98-15.668" transform="translate(21972.963 -2856)" fill="none" stroke="#0dacc5" stroke-width="1"></path><path id="Path_5074" data-name="Path 5074" d="M-21863,2856c23.543-.259,25.527,15.668,54.98,15.668s32.072-15.877,54.98-15.668" transform="translate(22080.963 -2856)" fill="none" stroke="#0dacc5" stroke-width="1"></path></g><g id="Group_4252" data-name="Group 4252" transform="translate(0 7.579)"><path id="Path_5075" data-name="Path 5075" d="M-21863,2856c23.543-.259,25.527,15.668,54.98,15.668s32.072-15.877,54.98-15.668" transform="translate(21862.998 -2856)" fill="none" stroke="#0dacc5" stroke-width="1"></path><path id="Path_5076" data-name="Path 5076" d="M-21863,2856c23.543-.259,25.527,15.668,54.98,15.668s32.072-15.877,54.98-15.668" transform="translate(21972.963 -2856)" fill="none" stroke="#0dacc5" stroke-width="1"></path><path id="Path_5077" data-name="Path 5077" d="M-21863,2856c23.543-.259,25.527,15.668,54.98,15.668s32.072-15.877,54.98-15.668" transform="translate(22080.963 -2856)" fill="none" stroke="#0dacc5" stroke-width="1"></path></g><g id="Group_4253" data-name="Group 4253" transform="translate(0 15.665)"><path id="Path_5078" data-name="Path 5078" d="M-21863,2856c23.543-.259,25.527,15.668,54.98,15.668s32.072-15.877,54.98-15.668" transform="translate(21862.998 -2856)" fill="none" stroke="#0dacc5" stroke-width="1"></path><path id="Path_5079" data-name="Path 5079" d="M-21863,2856c23.543-.259,25.527,15.668,54.98,15.668s32.072-15.877,54.98-15.668" transform="translate(21972.963 -2856)" fill="none" stroke="#0dacc5" stroke-width="1"></path><path id="Path_5080" data-name="Path 5080" d="M-21863,2856c23.543-.259,25.527,15.668,54.98,15.668s32.072-15.877,54.98-15.668" transform="translate(22080.963 -2856)" fill="none" stroke="#0dacc5" stroke-width="1"></path></g></g></g><g id="Group_4264" data-name="Group 4264" transform="translate(0 329.032)"><g id="Group_4259" data-name="Group 4259"><g id="Group_4256" data-name="Group 4256"><path id="Path_5081" data-name="Path 5081" d="M-21863,2856c23.543-.259,25.527,15.668,54.98,15.668s32.072-15.877,54.98-15.668" transform="translate(21862.998 -2856)" fill="none" stroke="#0dacc5" stroke-width="1"></path><path id="Path_5082" data-name="Path 5082" d="M-21863,2856c23.543-.259,25.527,15.668,54.98,15.668s32.072-15.877,54.98-15.668" transform="translate(21972.963 -2856)" fill="none" stroke="#0dacc5" stroke-width="1"></path><path id="Path_5083" data-name="Path 5083" d="M-21863,2856c23.543-.259,25.527,15.668,54.98,15.668s32.072-15.877,54.98-15.668" transform="translate(22080.963 -2856)" fill="none" stroke="#0dacc5" stroke-width="1"></path></g><g id="Group_4257" data-name="Group 4257" transform="translate(0 7.579)"><path id="Path_5084" data-name="Path 5084" d="M-21863,2856c23.543-.259,25.527,15.668,54.98,15.668s32.072-15.877,54.98-15.668" transform="translate(21862.998 -2856)" fill="none" stroke="#0dacc5" stroke-width="1"></path><path id="Path_5085" data-name="Path 5085" d="M-21863,2856c23.543-.259,25.527,15.668,54.98,15.668s32.072-15.877,54.98-15.668" transform="translate(21972.963 -2856)" fill="none" stroke="#0dacc5" stroke-width="1"></path><path id="Path_5086" data-name="Path 5086" d="M-21863,2856c23.543-.259,25.527,15.668,54.98,15.668s32.072-15.877,54.98-15.668" transform="translate(22080.963 -2856)" fill="none" stroke="#0dacc5" stroke-width="1"></path></g><g id="Group_4258" data-name="Group 4258" transform="translate(0 15.665)"><path id="Path_5087" data-name="Path 5087" d="M-21863,2856c23.543-.259,25.527,15.668,54.98,15.668s32.072-15.877,54.98-15.668" transform="translate(21862.998 -2856)" fill="none" stroke="#0dacc5" stroke-width="1"></path><path id="Path_5088" data-name="Path 5088" d="M-21863,2856c23.543-.259,25.527,15.668,54.98,15.668s32.072-15.877,54.98-15.668" transform="translate(21972.963 -2856)" fill="none" stroke="#0dacc5" stroke-width="1"></path><path id="Path_5089" data-name="Path 5089" d="M-21863,2856c23.543-.259,25.527,15.668,54.98,15.668s32.072-15.877,54.98-15.668" transform="translate(22080.963 -2856)" fill="none" stroke="#0dacc5" stroke-width="1"></path></g></g><g id="Group_4263" data-name="Group 4263" transform="translate(327.927)"><g id="Group_4260" data-name="Group 4260"><path id="Path_5090" data-name="Path 5090" d="M-21863,2856c23.543-.259,25.527,15.668,54.98,15.668s32.072-15.877,54.98-15.668" transform="translate(21862.998 -2856)" fill="none" stroke="#0dacc5" stroke-width="1"></path><path id="Path_5091" data-name="Path 5091" d="M-21863,2856c23.543-.259,25.527,15.668,54.98,15.668s32.072-15.877,54.98-15.668" transform="translate(21972.963 -2856)" fill="none" stroke="#0dacc5" stroke-width="1"></path><path id="Path_5092" data-name="Path 5092" d="M-21863,2856c23.543-.259,25.527,15.668,54.98,15.668s32.072-15.877,54.98-15.668" transform="translate(22080.963 -2856)" fill="none" stroke="#0dacc5" stroke-width="1"></path></g><g id="Group_4261" data-name="Group 4261" transform="translate(0 7.579)"><path id="Path_5093" data-name="Path 5093" d="M-21863,2856c23.543-.259,25.527,15.668,54.98,15.668s32.072-15.877,54.98-15.668" transform="translate(21862.998 -2856)" fill="none" stroke="#0dacc5" stroke-width="1"></path><path id="Path_5094" data-name="Path 5094" d="M-21863,2856c23.543-.259,25.527,15.668,54.98,15.668s32.072-15.877,54.98-15.668" transform="translate(21972.963 -2856)" fill="none" stroke="#0dacc5" stroke-width="1"></path><path id="Path_5095" data-name="Path 5095" d="M-21863,2856c23.543-.259,25.527,15.668,54.98,15.668s32.072-15.877,54.98-15.668" transform="translate(22080.963 -2856)" fill="none" stroke="#0dacc5" stroke-width="1"></path></g><g id="Group_4262" data-name="Group 4262" transform="translate(0 15.665)"><path id="Path_5096" data-name="Path 5096" d="M-21863,2856c23.543-.259,25.527,15.668,54.98,15.668s32.072-15.877,54.98-15.668" transform="translate(21862.998 -2856)" fill="none" stroke="#0dacc5" stroke-width="1"></path><path id="Path_5097" data-name="Path 5097" d="M-21863,2856c23.543-.259,25.527,15.668,54.98,15.668s32.072-15.877,54.98-15.668" transform="translate(21972.963 -2856)" fill="none" stroke="#0dacc5" stroke-width="1"></path><path id="Path_5098" data-name="Path 5098" d="M-21863,2856c23.543-.259,25.527,15.668,54.98,15.668s32.072-15.877,54.98-15.668" transform="translate(22080.963 -2856)" fill="none" stroke="#0dacc5" stroke-width="1"></path></g></g></g><g id="Group_4273" data-name="Group 4273" transform="translate(0 352.535)"><g id="Group_4268" data-name="Group 4268"><g id="Group_4265" data-name="Group 4265"><path id="Path_5099" data-name="Path 5099" d="M-21863,2856c23.543-.259,25.527,15.668,54.98,15.668s32.072-15.877,54.98-15.668" transform="translate(21862.998 -2856)" fill="none" stroke="#0dacc5" stroke-width="1"></path><path id="Path_5100" data-name="Path 5100" d="M-21863,2856c23.543-.259,25.527,15.668,54.98,15.668s32.072-15.877,54.98-15.668" transform="translate(21972.963 -2856)" fill="none" stroke="#0dacc5" stroke-width="1"></path><path id="Path_5101" data-name="Path 5101" d="M-21863,2856c23.543-.259,25.527,15.668,54.98,15.668s32.072-15.877,54.98-15.668" transform="translate(22080.963 -2856)" fill="none" stroke="#0dacc5" stroke-width="1"></path></g><g id="Group_4266" data-name="Group 4266" transform="translate(0 7.579)"><path id="Path_5102" data-name="Path 5102" d="M-21863,2856c23.543-.259,25.527,15.668,54.98,15.668s32.072-15.877,54.98-15.668" transform="translate(21862.998 -2856)" fill="none" stroke="#0dacc5" stroke-width="1"></path><path id="Path_5103" data-name="Path 5103" d="M-21863,2856c23.543-.259,25.527,15.668,54.98,15.668s32.072-15.877,54.98-15.668" transform="translate(21972.963 -2856)" fill="none" stroke="#0dacc5" stroke-width="1"></path><path id="Path_5104" data-name="Path 5104" d="M-21863,2856c23.543-.259,25.527,15.668,54.98,15.668s32.072-15.877,54.98-15.668" transform="translate(22080.963 -2856)" fill="none" stroke="#0dacc5" stroke-width="1"></path></g><g id="Group_4267" data-name="Group 4267" transform="translate(0 15.665)"><path id="Path_5105" data-name="Path 5105" d="M-21863,2856c23.543-.259,25.527,15.668,54.98,15.668s32.072-15.877,54.98-15.668" transform="translate(21862.998 -2856)" fill="none" stroke="#0dacc5" stroke-width="1"></path><path id="Path_5106" data-name="Path 5106" d="M-21863,2856c23.543-.259,25.527,15.668,54.98,15.668s32.072-15.877,54.98-15.668" transform="translate(21972.963 -2856)" fill="none" stroke="#0dacc5" stroke-width="1"></path><path id="Path_5107" data-name="Path 5107" d="M-21863,2856c23.543-.259,25.527,15.668,54.98,15.668s32.072-15.877,54.98-15.668" transform="translate(22080.963 -2856)" fill="none" stroke="#0dacc5" stroke-width="1"></path></g></g><g id="Group_4272" data-name="Group 4272" transform="translate(327.927)"><g id="Group_4269" data-name="Group 4269"><path id="Path_5108" data-name="Path 5108" d="M-21863,2856c23.543-.259,25.527,15.668,54.98,15.668s32.072-15.877,54.98-15.668" transform="translate(21862.998 -2856)" fill="none" stroke="#0dacc5" stroke-width="1"></path><path id="Path_5109" data-name="Path 5109" d="M-21863,2856c23.543-.259,25.527,15.668,54.98,15.668s32.072-15.877,54.98-15.668" transform="translate(21972.963 -2856)" fill="none" stroke="#0dacc5" stroke-width="1"></path><path id="Path_5110" data-name="Path 5110" d="M-21863,2856c23.543-.259,25.527,15.668,54.98,15.668s32.072-15.877,54.98-15.668" transform="translate(22080.963 -2856)" fill="none" stroke="#0dacc5" stroke-width="1"></path></g><g id="Group_4270" data-name="Group 4270" transform="translate(0 7.579)"><path id="Path_5111" data-name="Path 5111" d="M-21863,2856c23.543-.259,25.527,15.668,54.98,15.668s32.072-15.877,54.98-15.668" transform="translate(21862.998 -2856)" fill="none" stroke="#0dacc5" stroke-width="1"></path><path id="Path_5112" data-name="Path 5112" d="M-21863,2856c23.543-.259,25.527,15.668,54.98,15.668s32.072-15.877,54.98-15.668" transform="translate(21972.963 -2856)" fill="none" stroke="#0dacc5" stroke-width="1"></path><path id="Path_5113" data-name="Path 5113" d="M-21863,2856c23.543-.259,25.527,15.668,54.98,15.668s32.072-15.877,54.98-15.668" transform="translate(22080.963 -2856)" fill="none" stroke="#0dacc5" stroke-width="1"></path></g><g id="Group_4271" data-name="Group 4271" transform="translate(0 15.665)"><path id="Path_5114" data-name="Path 5114" d="M-21863,2856c23.543-.259,25.527,15.668,54.98,15.668s32.072-15.877,54.98-15.668" transform="translate(21862.998 -2856)" fill="none" stroke="#0dacc5" stroke-width="1"></path><path id="Path_5115" data-name="Path 5115" d="M-21863,2856c23.543-.259,25.527,15.668,54.98,15.668s32.072-15.877,54.98-15.668" transform="translate(21972.963 -2856)" fill="none" stroke="#0dacc5" stroke-width="1"></path><path id="Path_5116" data-name="Path 5116" d="M-21863,2856c23.543-.259,25.527,15.668,54.98,15.668s32.072-15.877,54.98-15.668" transform="translate(22080.963 -2856)" fill="none" stroke="#0dacc5" stroke-width="1"></path></g></g></g><g id="Group_4282" data-name="Group 4282" transform="translate(0 376.037)"><g id="Group_4277" data-name="Group 4277"><g id="Group_4274" data-name="Group 4274"><path id="Path_5117" data-name="Path 5117" d="M-21863,2856c23.543-.259,25.527,15.668,54.98,15.668s32.072-15.877,54.98-15.668" transform="translate(21862.998 -2856)" fill="none" stroke="#0dacc5" stroke-width="1"></path><path id="Path_5118" data-name="Path 5118" d="M-21863,2856c23.543-.259,25.527,15.668,54.98,15.668s32.072-15.877,54.98-15.668" transform="translate(21972.963 -2856)" fill="none" stroke="#0dacc5" stroke-width="1"></path><path id="Path_5119" data-name="Path 5119" d="M-21863,2856c23.543-.259,25.527,15.668,54.98,15.668s32.072-15.877,54.98-15.668" transform="translate(22080.963 -2856)" fill="none" stroke="#0dacc5" stroke-width="1"></path></g><g id="Group_4275" data-name="Group 4275" transform="translate(0 7.579)"><path id="Path_5120" data-name="Path 5120" d="M-21863,2856c23.543-.259,25.527,15.668,54.98,15.668s32.072-15.877,54.98-15.668" transform="translate(21862.998 -2856)" fill="none" stroke="#0dacc5" stroke-width="1"></path><path id="Path_5121" data-name="Path 5121" d="M-21863,2856c23.543-.259,25.527,15.668,54.98,15.668s32.072-15.877,54.98-15.668" transform="translate(21972.963 -2856)" fill="none" stroke="#0dacc5" stroke-width="1"></path><path id="Path_5122" data-name="Path 5122" d="M-21863,2856c23.543-.259,25.527,15.668,54.98,15.668s32.072-15.877,54.98-15.668" transform="translate(22080.963 -2856)" fill="none" stroke="#0dacc5" stroke-width="1"></path></g><g id="Group_4276" data-name="Group 4276" transform="translate(0 15.665)"><path id="Path_5123" data-name="Path 5123" d="M-21863,2856c23.543-.259,25.527,15.668,54.98,15.668s32.072-15.877,54.98-15.668" transform="translate(21862.998 -2856)" fill="none" stroke="#0dacc5" stroke-width="1"></path><path id="Path_5124" data-name="Path 5124" d="M-21863,2856c23.543-.259,25.527,15.668,54.98,15.668s32.072-15.877,54.98-15.668" transform="translate(21972.963 -2856)" fill="none" stroke="#0dacc5" stroke-width="1"></path><path id="Path_5125" data-name="Path 5125" d="M-21863,2856c23.543-.259,25.527,15.668,54.98,15.668s32.072-15.877,54.98-15.668" transform="translate(22080.963 -2856)" fill="none" stroke="#0dacc5" stroke-width="1"></path></g></g><g id="Group_4281" data-name="Group 4281" transform="translate(327.927)"><g id="Group_4278" data-name="Group 4278"><path id="Path_5126" data-name="Path 5126" d="M-21863,2856c23.543-.259,25.527,15.668,54.98,15.668s32.072-15.877,54.98-15.668" transform="translate(21862.998 -2856)" fill="none" stroke="#0dacc5" stroke-width="1"></path><path id="Path_5127" data-name="Path 5127" d="M-21863,2856c23.543-.259,25.527,15.668,54.98,15.668s32.072-15.877,54.98-15.668" transform="translate(21972.963 -2856)" fill="none" stroke="#0dacc5" stroke-width="1"></path><path id="Path_5128" data-name="Path 5128" d="M-21863,2856c23.543-.259,25.527,15.668,54.98,15.668s32.072-15.877,54.98-15.668" transform="translate(22080.963 -2856)" fill="none" stroke="#0dacc5" stroke-width="1"></path></g><g id="Group_4279" data-name="Group 4279" transform="translate(0 7.579)"><path id="Path_5129" data-name="Path 5129" d="M-21863,2856c23.543-.259,25.527,15.668,54.98,15.668s32.072-15.877,54.98-15.668" transform="translate(21862.998 -2856)" fill="none" stroke="#0dacc5" stroke-width="1"></path><path id="Path_5130" data-name="Path 5130" d="M-21863,2856c23.543-.259,25.527,15.668,54.98,15.668s32.072-15.877,54.98-15.668" transform="translate(21972.963 -2856)" fill="none" stroke="#0dacc5" stroke-width="1"></path><path id="Path_5131" data-name="Path 5131" d="M-21863,2856c23.543-.259,25.527,15.668,54.98,15.668s32.072-15.877,54.98-15.668" transform="translate(22080.963 -2856)" fill="none" stroke="#0dacc5" stroke-width="1"></path></g><g id="Group_4280" data-name="Group 4280" transform="translate(0 15.665)"><path id="Path_5132" data-name="Path 5132" d="M-21863,2856c23.543-.259,25.527,15.668,54.98,15.668s32.072-15.877,54.98-15.668" transform="translate(21862.998 -2856)" fill="none" stroke="#0dacc5" stroke-width="1"></path><path id="Path_5133" data-name="Path 5133" d="M-21863,2856c23.543-.259,25.527,15.668,54.98,15.668s32.072-15.877,54.98-15.668" transform="translate(21972.963 -2856)" fill="none" stroke="#0dacc5" stroke-width="1"></path><path id="Path_5134" data-name="Path 5134" d="M-21863,2856c23.543-.259,25.527,15.668,54.98,15.668s32.072-15.877,54.98-15.668" transform="translate(22080.963 -2856)" fill="none" stroke="#0dacc5" stroke-width="1"></path></g></g></g></g></g></g></svg> 