<svg xmlns="http://www.w3.org/2000/svg" xmlns:xlink="http://www.w3.org/1999/xlink" width="500" zoomAndPan="magnify" viewBox="0 0 375 374.999991" height="500" preserveAspectRatio="xMidYMid meet" version="1.0"><path stroke-linecap="butt" transform="matrix(1.036458, 0, 0, 1.03661, 22599.473, -2975.353629)" fill="none" stroke-linejoin="miter" d="M -21863.000943 2855.998324 C -21839.456974 2855.74208 -21837.474562 2871.666884 -21808.021045 2871.666884 C -21778.567528 2871.666884 -21775.948182 2855.791068 -21753.037378 2855.998324 " stroke="#0dacc5" stroke-width="1" stroke-opacity="1" stroke-miterlimit="4"/><path stroke-linecap="butt" transform="matrix(1.036458, 0, 0, 1.03661, 22711.410433, -2975.353629)" fill="none" stroke-linejoin="miter" d="M -21863.000878 2855.998324 C -21839.456909 2855.74208 -21837.474497 2871.666884 -21808.02098 2871.666884 C -21778.567463 2871.666884 -21775.948117 2855.791068 -21753.037313 2855.998324 " stroke="#0dacc5" stroke-width="1" stroke-opacity="1" stroke-miterlimit="4"/><path stroke-linecap="butt" transform="matrix(1.036458, 0, 0, 1.03661, 22599.473, -2966.971677)" fill="none" stroke-linejoin="miter" d="M -21863.000943 2855.999155 C -21839.456974 2855.739142 -21837.474562 2871.667714 -21808.021045 2871.667714 C -21778.567528 2871.667714 -21775.948182 2855.791898 -21753.037378 2855.999155 " stroke="#0dacc5" stroke-width="1" stroke-opacity="1" stroke-miterlimit="4"/><path stroke-linecap="butt" transform="matrix(1.036458, 0, 0, 1.03661, 22711.410433, -2966.971677)" fill="none" stroke-linejoin="miter" d="M -21863.000878 2855.999155 C -21839.456909 2855.739142 -21837.474497 2871.667714 -21808.02098 2871.667714 C -21778.567463 2871.667714 -21775.948117 2855.791898 -21753.037313 2855.999155 " stroke="#0dacc5" stroke-width="1" stroke-opacity="1" stroke-miterlimit="4"/><path stroke-linecap="butt" transform="matrix(1.036458, 0, 0, 1.03661, 22599.473, -2958.847774)" fill="none" stroke-linejoin="miter" d="M -21863.000943 2856.000212 C -21839.456974 2855.7402 -21837.474562 2871.668772 -21808.021045 2871.668772 C -21778.567528 2871.668772 -21775.948182 2855.789188 -21753.037378 2856.000212 " stroke="#0dacc5" stroke-width="1" stroke-opacity="1" stroke-miterlimit="4"/><path stroke-linecap="butt" transform="matrix(1.036458, 0, 0, 1.03661, 22711.410433, -2958.847774)" fill="none" stroke-linejoin="miter" d="M -21863.000878 2856.000212 C -21839.456909 2855.7402 -21837.474497 2871.668772 -21808.02098 2871.668772 C -21778.567463 2871.668772 -21775.948117 2855.789188 -21753.037313 2856.000212 " stroke="#0dacc5" stroke-width="1" stroke-opacity="1" stroke-miterlimit="4"/><path stroke-linecap="butt" transform="matrix(1.036458, 0, 0, 1.03661, 22599.473, -2950.991302)" fill="none" stroke-linejoin="miter" d="M -21863.000943 2855.999245 C -21839.456974 2855.739233 -21837.474562 2871.667805 -21808.021045 2871.667805 C -21778.567528 2871.667805 -21775.948182 2855.791989 -21753.037378 2855.999245 " stroke="#0dacc5" stroke-width="1" stroke-opacity="1" stroke-miterlimit="4"/><path stroke-linecap="butt" transform="matrix(1.036458, 0, 0, 1.03661, 22711.410433, -2950.991302)" fill="none" stroke-linejoin="miter" d="M -21863.000878 2855.999245 C -21839.456909 2855.739233 -21837.474497 2871.667805 -21808.02098 2871.667805 C -21778.567463 2871.667805 -21775.948117 2855.791989 -21753.037313 2855.999245 " stroke="#0dacc5" stroke-width="1" stroke-opacity="1" stroke-miterlimit="4"/><path stroke-linecap="butt" transform="matrix(1.036458, 0, 0, 1.03661, 22599.473, -2942.609111)" fill="none" stroke-linejoin="miter" d="M -21863.000943 2855.999844 C -21839.456974 2855.739832 -21837.474562 2871.668404 -21808.021045 2871.668404 C -21778.567528 2871.668404 -21775.948182 2855.792588 -21753.037378 2855.999844 " stroke="#0dacc5" stroke-width="1" stroke-opacity="1" stroke-miterlimit="4"/><path stroke-linecap="butt" transform="matrix(1.036458, 0, 0, 1.03661, 22711.410433, -2942.609111)" fill="none" stroke-linejoin="miter" d="M -21863.000878 2855.999844 C -21839.456909 2855.739832 -21837.474497 2871.668404 -21808.02098 2871.668404 C -21778.567463 2871.668404 -21775.948117 2855.792588 -21753.037313 2855.999844 " stroke="#0dacc5" stroke-width="1" stroke-opacity="1" stroke-miterlimit="4"/><path stroke-linecap="butt" transform="matrix(1.036458, 0, 0, 1.03661, 22599.473, -2934.484031)" fill="none" stroke-linejoin="miter" d="M -21863.000943 2855.999767 C -21839.456974 2855.739755 -21837.474562 2871.668327 -21808.021045 2871.668327 C -21778.567528 2871.668327 -21775.948182 2855.792511 -21753.037378 2855.999767 " stroke="#0dacc5" stroke-width="1" stroke-opacity="1" stroke-miterlimit="4"/><path stroke-linecap="butt" transform="matrix(1.036458, 0, 0, 1.03661, 22711.410433, -2934.484031)" fill="none" stroke-linejoin="miter" d="M -21863.000878 2855.999767 C -21839.456909 2855.739755 -21837.474497 2871.668327 -21808.02098 2871.668327 C -21778.567463 2871.668327 -21775.948117 2855.792511 -21753.037313 2855.999767 " stroke="#0dacc5" stroke-width="1" stroke-opacity="1" stroke-miterlimit="4"/><path stroke-linecap="butt" transform="matrix(1.036458, 0, 0, 1.03661, 22599.473, -2926.627776)" fill="none" stroke-linejoin="miter" d="M -21863.000943 2855.999009 C -21839.456974 2855.742765 -21837.474562 2871.667568 -21808.021045 2871.667568 C -21778.567528 2871.667568 -21775.948182 2855.791752 -21753.037378 2855.999009 " stroke="#0dacc5" stroke-width="1" stroke-opacity="1" stroke-miterlimit="4"/><path stroke-linecap="butt" transform="matrix(1.036458, 0, 0, 1.03661, 22711.410433, -2926.627776)" fill="none" stroke-linejoin="miter" d="M -21863.000878 2855.999009 C -21839.456909 2855.742765 -21837.474497 2871.667568 -21808.02098 2871.667568 C -21778.567463 2871.667568 -21775.948117 2855.791752 -21753.037313 2855.999009 " stroke="#0dacc5" stroke-width="1" stroke-opacity="1" stroke-miterlimit="4"/><path stroke-linecap="butt" transform="matrix(1.036458, 0, 0, 1.03661, 22599.473, -2918.245584)" fill="none" stroke-linejoin="miter" d="M -21863.000943 2855.999608 C -21839.456974 2855.739595 -21837.474562 2871.668167 -21808.021045 2871.668167 C -21778.567528 2871.668167 -21775.948182 2855.792352 -21753.037378 2855.999608 " stroke="#0dacc5" stroke-width="1" stroke-opacity="1" stroke-miterlimit="4"/><path stroke-linecap="butt" transform="matrix(1.036458, 0, 0, 1.03661, 22711.410433, -2918.245584)" fill="none" stroke-linejoin="miter" d="M -21863.000878 2855.999608 C -21839.456909 2855.739595 -21837.474497 2871.668167 -21808.02098 2871.668167 C -21778.567463 2871.668167 -21775.948117 2855.792352 -21753.037313 2855.999608 " stroke="#0dacc5" stroke-width="1" stroke-opacity="1" stroke-miterlimit="4"/><path stroke-linecap="butt" transform="matrix(1.036458, 0, 0, 1.03661, 22599.473, -2910.121681)" fill="none" stroke-linejoin="miter" d="M -21863.000943 2856.000665 C -21839.456974 2855.740653 -21837.474562 2871.669225 -21808.021045 2871.669225 C -21778.567528 2871.669225 -21775.948182 2855.789641 -21753.037378 2856.000665 " stroke="#0dacc5" stroke-width="1" stroke-opacity="1" stroke-miterlimit="4"/><path stroke-linecap="butt" transform="matrix(1.036458, 0, 0, 1.03661, 22711.410433, -2910.121681)" fill="none" stroke-linejoin="miter" d="M -21863.000878 2856.000665 C -21839.456909 2855.740653 -21837.474497 2871.669225 -21808.02098 2871.669225 C -21778.567463 2871.669225 -21775.948117 2855.789641 -21753.037313 2856.000665 " stroke="#0dacc5" stroke-width="1" stroke-opacity="1" stroke-miterlimit="4"/><path stroke-linecap="butt" transform="matrix(1.036458, 0, 0, 1.03661, 22599.473, -2902.265425)" fill="none" stroke-linejoin="miter" d="M -21863.000943 2855.999906 C -21839.456974 2855.739894 -21837.474562 2871.668466 -21808.021045 2871.668466 C -21778.567528 2871.668466 -21775.948182 2855.79265 -21753.037378 2855.999906 " stroke="#0dacc5" stroke-width="1" stroke-opacity="1" stroke-miterlimit="4"/><path stroke-linecap="butt" transform="matrix(1.036458, 0, 0, 1.03661, 22711.410433, -2902.265425)" fill="none" stroke-linejoin="miter" d="M -21863.000878 2855.999906 C -21839.456909 2855.739894 -21837.474497 2871.668466 -21808.02098 2871.668466 C -21778.567463 2871.668466 -21775.948117 2855.79265 -21753.037313 2855.999906 " stroke="#0dacc5" stroke-width="1" stroke-opacity="1" stroke-miterlimit="4"/><path stroke-linecap="butt" transform="matrix(1.036458, 0, 0, 1.03661, 22599.473, -2893.883258)" fill="none" stroke-linejoin="miter" d="M -21863.000943 2856.000529 C -21839.456974 2855.740517 -21837.474562 2871.669088 -21808.021045 2871.669088 C -21778.567528 2871.669088 -21775.948182 2855.789504 -21753.037378 2856.000529 " stroke="#0dacc5" stroke-width="1" stroke-opacity="1" stroke-miterlimit="4"/><path stroke-linecap="butt" transform="matrix(1.036458, 0, 0, 1.03661, 22711.410433, -2893.883258)" fill="none" stroke-linejoin="miter" d="M -21863.000878 2856.000529 C -21839.456909 2855.740517 -21837.474497 2871.669088 -21808.02098 2871.669088 C -21778.567463 2871.669088 -21775.948117 2855.789504 -21753.037313 2856.000529 " stroke="#0dacc5" stroke-width="1" stroke-opacity="1" stroke-miterlimit="4"/><path stroke-linecap="butt" transform="matrix(1.036458, 0, 0, 1.03661, 22599.473, -2885.759331)" fill="none" stroke-linejoin="miter" d="M -21863.000943 2856.001563 C -21839.456974 2855.741551 -21837.474562 2871.666355 -21808.021045 2871.666355 C -21778.567528 2871.666355 -21775.948182 2855.790539 -21753.037378 2856.001563 " stroke="#0dacc5" stroke-width="1" stroke-opacity="1" stroke-miterlimit="4"/><path stroke-linecap="butt" transform="matrix(1.036458, 0, 0, 1.03661, 22711.410433, -2885.759331)" fill="none" stroke-linejoin="miter" d="M -21863.000878 2856.001563 C -21839.456909 2855.741551 -21837.474497 2871.666355 -21808.02098 2871.666355 C -21778.567463 2871.666355 -21775.948117 2855.790539 -21753.037313 2856.001563 " stroke="#0dacc5" stroke-width="1" stroke-opacity="1" stroke-miterlimit="4"/><path stroke-linecap="butt" transform="matrix(1.036458, 0, 0, 1.03661, 22599.473, -2877.902859)" fill="none" stroke-linejoin="miter" d="M -21863.000943 2856.000596 C -21839.456974 2855.740584 -21837.474562 2871.669156 -21808.021045 2871.669156 C -21778.567528 2871.669156 -21775.948182 2855.789572 -21753.037378 2856.000596 " stroke="#0dacc5" stroke-width="1" stroke-opacity="1" stroke-miterlimit="4"/><path stroke-linecap="butt" transform="matrix(1.036458, 0, 0, 1.03661, 22711.410433, -2877.902859)" fill="none" stroke-linejoin="miter" d="M -21863.000878 2856.000596 C -21839.456909 2855.740584 -21837.474497 2871.669156 -21808.02098 2871.669156 C -21778.567463 2871.669156 -21775.948117 2855.789572 -21753.037313 2856.000596 " stroke="#0dacc5" stroke-width="1" stroke-opacity="1" stroke-miterlimit="4"/><path stroke-linecap="butt" transform="matrix(1.036458, 0, 0, 1.03661, 22599.473, -2869.520908)" fill="none" stroke-linejoin="miter" d="M -21863.000943 2856.001427 C -21839.456974 2855.741415 -21837.474562 2871.666218 -21808.021045 2871.666218 C -21778.567528 2871.666218 -21775.948182 2855.790402 -21753.037378 2856.001427 " stroke="#0dacc5" stroke-width="1" stroke-opacity="1" stroke-miterlimit="4"/><path stroke-linecap="butt" transform="matrix(1.036458, 0, 0, 1.03661, 22711.410433, -2869.520908)" fill="none" stroke-linejoin="miter" d="M -21863.000878 2856.001427 C -21839.456909 2855.741415 -21837.474497 2871.666218 -21808.02098 2871.666218 C -21778.567463 2871.666218 -21775.948117 2855.790402 -21753.037313 2856.001427 " stroke="#0dacc5" stroke-width="1" stroke-opacity="1" stroke-miterlimit="4"/><path stroke-linecap="butt" transform="matrix(1.036458, 0, 0, 1.03661, 22599.473, -2861.396068)" fill="none" stroke-linejoin="miter" d="M -21863.000943 2856.001582 C -21839.456974 2855.741569 -21837.474562 2871.666373 -21808.021045 2871.666373 C -21778.567528 2871.666373 -21775.948182 2855.790557 -21753.037378 2856.001582 " stroke="#0dacc5" stroke-width="1" stroke-opacity="1" stroke-miterlimit="4"/><path stroke-linecap="butt" transform="matrix(1.036458, 0, 0, 1.03661, 22711.410433, -2861.396068)" fill="none" stroke-linejoin="miter" d="M -21863.000878 2856.001582 C -21839.456909 2855.741569 -21837.474497 2871.666373 -21808.02098 2871.666373 C -21778.567463 2871.666373 -21775.948117 2855.790557 -21753.037313 2856.001582 " stroke="#0dacc5" stroke-width="1" stroke-opacity="1" stroke-miterlimit="4"/><path stroke-linecap="butt" transform="matrix(1.036458, 0, 0, 1.03661, 22599.473, -2853.539333)" fill="none" stroke-linejoin="miter" d="M -21863.000943 2856.00036 C -21839.456974 2855.740347 -21837.474562 2871.668919 -21808.021045 2871.668919 C -21778.567528 2871.668919 -21775.948182 2855.789335 -21753.037378 2856.00036 " stroke="#0dacc5" stroke-width="1" stroke-opacity="1" stroke-miterlimit="4"/><path stroke-linecap="butt" transform="matrix(1.036458, 0, 0, 1.03661, 22711.410433, -2853.539333)" fill="none" stroke-linejoin="miter" d="M -21863.000878 2856.00036 C -21839.456909 2855.740347 -21837.474497 2871.668919 -21808.02098 2871.668919 C -21778.567463 2871.668919 -21775.948117 2855.789335 -21753.037313 2856.00036 " stroke="#0dacc5" stroke-width="1" stroke-opacity="1" stroke-miterlimit="4"/><path stroke-linecap="butt" transform="matrix(1.036458, 0, 0, 1.03661, 22599.473, -2845.157381)" fill="none" stroke-linejoin="miter" d="M -21863.000943 2856.00119 C -21839.456974 2855.741178 -21837.474562 2871.66975 -21808.021045 2871.66975 C -21778.567528 2871.66975 -21775.948182 2855.790166 -21753.037378 2856.00119 " stroke="#0dacc5" stroke-width="1" stroke-opacity="1" stroke-miterlimit="4"/><path stroke-linecap="butt" transform="matrix(1.036458, 0, 0, 1.03661, 22711.410433, -2845.157381)" fill="none" stroke-linejoin="miter" d="M -21863.000878 2856.00119 C -21839.456909 2855.741178 -21837.474497 2871.66975 -21808.02098 2871.66975 C -21778.567463 2871.66975 -21775.948117 2855.790166 -21753.037313 2856.00119 " stroke="#0dacc5" stroke-width="1" stroke-opacity="1" stroke-miterlimit="4"/><path stroke-linecap="butt" transform="matrix(1.036458, 0, 0, 1.03661, 22599.473, -2837.033478)" fill="none" stroke-linejoin="miter" d="M -21863.000943 2855.99848 C -21839.456974 2855.742236 -21837.474562 2871.667039 -21808.021045 2871.667039 C -21778.567528 2871.667039 -21775.948182 2855.791224 -21753.037378 2855.99848 " stroke="#0dacc5" stroke-width="1" stroke-opacity="1" stroke-miterlimit="4"/><path stroke-linecap="butt" transform="matrix(1.036458, 0, 0, 1.03661, 22711.410433, -2837.033478)" fill="none" stroke-linejoin="miter" d="M -21863.000878 2855.99848 C -21839.456909 2855.742236 -21837.474497 2871.667039 -21808.02098 2871.667039 C -21778.567463 2871.667039 -21775.948117 2855.791224 -21753.037313 2855.99848 " stroke="#0dacc5" stroke-width="1" stroke-opacity="1" stroke-miterlimit="4"/><path stroke-linecap="butt" transform="matrix(1.036458, 0, 0, 1.03661, 22599.473, -2829.177006)" fill="none" stroke-linejoin="miter" d="M -21863.000943 2856.001281 C -21839.456974 2855.741269 -21837.474562 2871.66984 -21808.021045 2871.66984 C -21778.567528 2871.66984 -21775.948182 2855.790256 -21753.037378 2856.001281 " stroke="#0dacc5" stroke-width="1" stroke-opacity="1" stroke-miterlimit="4"/><path stroke-linecap="butt" transform="matrix(1.036458, 0, 0, 1.03661, 22711.410433, -2829.177006)" fill="none" stroke-linejoin="miter" d="M -21863.000878 2856.001281 C -21839.456909 2855.741269 -21837.474497 2871.66984 -21808.02098 2871.66984 C -21778.567463 2871.66984 -21775.948117 2855.790256 -21753.037313 2856.001281 " stroke="#0dacc5" stroke-width="1" stroke-opacity="1" stroke-miterlimit="4"/><path stroke-linecap="butt" transform="matrix(1.036458, 0, 0, 1.03661, 22599.473, -2820.795055)" fill="none" stroke-linejoin="miter" d="M -21863.000943 2855.998343 C -21839.456974 2855.742099 -21837.474562 2871.666903 -21808.021045 2871.666903 C -21778.567528 2871.666903 -21775.948182 2855.791087 -21753.037378 2855.998343 " stroke="#0dacc5" stroke-width="1" stroke-opacity="1" stroke-miterlimit="4"/><path stroke-linecap="butt" transform="matrix(1.036458, 0, 0, 1.03661, 22711.410433, -2820.795055)" fill="none" stroke-linejoin="miter" d="M -21863.000878 2855.998343 C -21839.456909 2855.742099 -21837.474497 2871.666903 -21808.02098 2871.666903 C -21778.567463 2871.666903 -21775.948117 2855.791087 -21753.037313 2855.998343 " stroke="#0dacc5" stroke-width="1" stroke-opacity="1" stroke-miterlimit="4"/><path stroke-linecap="butt" transform="matrix(1.036458, 0, 0, 1.03661, 22825.382346, -2975.353629)" fill="none" stroke-linejoin="miter" d="M -21863.00016 2855.998324 C -21839.456191 2855.74208 -21837.473779 2871.666884 -21808.020262 2871.666884 C -21778.566746 2871.666884 -21775.947399 2855.791068 -21753.040364 2855.998324 " stroke="#0dacc5" stroke-width="1" stroke-opacity="1" stroke-miterlimit="4"/><path stroke-linecap="butt" transform="matrix(1.036458, 0, 0, 1.03661, 22939.355938, -2975.353629)" fill="none" stroke-linejoin="miter" d="M -21863.001064 2855.998324 C -21839.457094 2855.74208 -21837.474682 2871.666884 -21808.021166 2871.666884 C -21778.567649 2871.666884 -21775.948302 2855.791068 -21753.037499 2855.998324 " stroke="#0dacc5" stroke-width="1" stroke-opacity="1" stroke-miterlimit="4"/><path stroke-linecap="butt" transform="matrix(1.036458, 0, 0, 1.03661, 22825.382346, -2966.971677)" fill="none" stroke-linejoin="miter" d="M -21863.00016 2855.999155 C -21839.456191 2855.739142 -21837.473779 2871.667714 -21808.020262 2871.667714 C -21778.566746 2871.667714 -21775.947399 2855.791898 -21753.040364 2855.999155 " stroke="#0dacc5" stroke-width="1" stroke-opacity="1" stroke-miterlimit="4"/><path stroke-linecap="butt" transform="matrix(1.036458, 0, 0, 1.03661, 22939.355938, -2966.971677)" fill="none" stroke-linejoin="miter" d="M -21863.001064 2855.999155 C -21839.457094 2855.739142 -21837.474682 2871.667714 -21808.021166 2871.667714 C -21778.567649 2871.667714 -21775.948302 2855.791898 -21753.037499 2855.999155 " stroke="#0dacc5" stroke-width="1" stroke-opacity="1" stroke-miterlimit="4"/><path stroke-linecap="butt" transform="matrix(1.036458, 0, 0, 1.03661, 22825.382346, -2958.847774)" fill="none" stroke-linejoin="miter" d="M -21863.00016 2856.000212 C -21839.456191 2855.7402 -21837.473779 2871.668772 -21808.020262 2871.668772 C -21778.566746 2871.668772 -21775.947399 2855.789188 -21753.040364 2856.000212 " stroke="#0dacc5" stroke-width="1" stroke-opacity="1" stroke-miterlimit="4"/><path stroke-linecap="butt" transform="matrix(1.036458, 0, 0, 1.03661, 22939.355938, -2958.847774)" fill="none" stroke-linejoin="miter" d="M -21863.001064 2856.000212 C -21839.457094 2855.7402 -21837.474682 2871.668772 -21808.021166 2871.668772 C -21778.567649 2871.668772 -21775.948302 2855.789188 -21753.037499 2856.000212 " stroke="#0dacc5" stroke-width="1" stroke-opacity="1" stroke-miterlimit="4"/><path stroke-linecap="butt" transform="matrix(1.036458, 0, 0, 1.03661, 22825.382346, -2950.991302)" fill="none" stroke-linejoin="miter" d="M -21863.00016 2855.999245 C -21839.456191 2855.739233 -21837.473779 2871.667805 -21808.020262 2871.667805 C -21778.566746 2871.667805 -21775.947399 2855.791989 -21753.040364 2855.999245 " stroke="#0dacc5" stroke-width="1" stroke-opacity="1" stroke-miterlimit="4"/><path stroke-linecap="butt" transform="matrix(1.036458, 0, 0, 1.03661, 22939.355938, -2950.991302)" fill="none" stroke-linejoin="miter" d="M -21863.001064 2855.999245 C -21839.457094 2855.739233 -21837.474682 2871.667805 -21808.021166 2871.667805 C -21778.567649 2871.667805 -21775.948302 2855.791989 -21753.037499 2855.999245 " stroke="#0dacc5" stroke-width="1" stroke-opacity="1" stroke-miterlimit="4"/><path stroke-linecap="butt" transform="matrix(1.036458, 0, 0, 1.03661, 22825.382346, -2942.609111)" fill="none" stroke-linejoin="miter" d="M -21863.00016 2855.999844 C -21839.456191 2855.739832 -21837.473779 2871.668404 -21808.020262 2871.668404 C -21778.566746 2871.668404 -21775.947399 2855.792588 -21753.040364 2855.999844 " stroke="#0dacc5" stroke-width="1" stroke-opacity="1" stroke-miterlimit="4"/><path stroke-linecap="butt" transform="matrix(1.036458, 0, 0, 1.03661, 22939.355938, -2942.609111)" fill="none" stroke-linejoin="miter" d="M -21863.001064 2855.999844 C -21839.457094 2855.739832 -21837.474682 2871.668404 -21808.021166 2871.668404 C -21778.567649 2871.668404 -21775.948302 2855.792588 -21753.037499 2855.999844 " stroke="#0dacc5" stroke-width="1" stroke-opacity="1" stroke-miterlimit="4"/><path stroke-linecap="butt" transform="matrix(1.036458, 0, 0, 1.03661, 22825.382346, -2934.484031)" fill="none" stroke-linejoin="miter" d="M -21863.00016 2855.999767 C -21839.456191 2855.739755 -21837.473779 2871.668327 -21808.020262 2871.668327 C -21778.566746 2871.668327 -21775.947399 2855.792511 -21753.040364 2855.999767 " stroke="#0dacc5" stroke-width="1" stroke-opacity="1" stroke-miterlimit="4"/><path stroke-linecap="butt" transform="matrix(1.036458, 0, 0, 1.03661, 22939.355938, -2934.484031)" fill="none" stroke-linejoin="miter" d="M -21863.001064 2855.999767 C -21839.457094 2855.739755 -21837.474682 2871.668327 -21808.021166 2871.668327 C -21778.567649 2871.668327 -21775.948302 2855.792511 -21753.037499 2855.999767 " stroke="#0dacc5" stroke-width="1" stroke-opacity="1" stroke-miterlimit="4"/><path stroke-linecap="butt" transform="matrix(1.036458, 0, 0, 1.03661, 22825.382346, -2926.627776)" fill="none" stroke-linejoin="miter" d="M -21863.00016 2855.999009 C -21839.456191 2855.742765 -21837.473779 2871.667568 -21808.020262 2871.667568 C -21778.566746 2871.667568 -21775.947399 2855.791752 -21753.040364 2855.999009 " stroke="#0dacc5" stroke-width="1" stroke-opacity="1" stroke-miterlimit="4"/><path stroke-linecap="butt" transform="matrix(1.036458, 0, 0, 1.03661, 22939.355938, -2926.627776)" fill="none" stroke-linejoin="miter" d="M -21863.001064 2855.999009 C -21839.457094 2855.742765 -21837.474682 2871.667568 -21808.021166 2871.667568 C -21778.567649 2871.667568 -21775.948302 2855.791752 -21753.037499 2855.999009 " stroke="#0dacc5" stroke-width="1" stroke-opacity="1" stroke-miterlimit="4"/><path stroke-linecap="butt" transform="matrix(1.036458, 0, 0, 1.03661, 22825.382346, -2918.245584)" fill="none" stroke-linejoin="miter" d="M -21863.00016 2855.999608 C -21839.456191 2855.739595 -21837.473779 2871.668167 -21808.020262 2871.668167 C -21778.566746 2871.668167 -21775.947399 2855.792352 -21753.040364 2855.999608 " stroke="#0dacc5" stroke-width="1" stroke-opacity="1" stroke-miterlimit="4"/><path stroke-linecap="butt" transform="matrix(1.036458, 0, 0, 1.03661, 22939.355938, -2918.245584)" fill="none" stroke-linejoin="miter" d="M -21863.001064 2855.999608 C -21839.457094 2855.739595 -21837.474682 2871.668167 -21808.021166 2871.668167 C -21778.567649 2871.668167 -21775.948302 2855.792352 -21753.037499 2855.999608 " stroke="#0dacc5" stroke-width="1" stroke-opacity="1" stroke-miterlimit="4"/><path stroke-linecap="butt" transform="matrix(1.036458, 0, 0, 1.03661, 22825.382346, -2910.121681)" fill="none" stroke-linejoin="miter" d="M -21863.00016 2856.000665 C -21839.456191 2855.740653 -21837.473779 2871.669225 -21808.020262 2871.669225 C -21778.566746 2871.669225 -21775.947399 2855.789641 -21753.040364 2856.000665 " stroke="#0dacc5" stroke-width="1" stroke-opacity="1" stroke-miterlimit="4"/><path stroke-linecap="butt" transform="matrix(1.036458, 0, 0, 1.03661, 22939.355938, -2910.121681)" fill="none" stroke-linejoin="miter" d="M -21863.001064 2856.000665 C -21839.457094 2855.740653 -21837.474682 2871.669225 -21808.021166 2871.669225 C -21778.567649 2871.669225 -21775.948302 2855.789641 -21753.037499 2856.000665 " stroke="#0dacc5" stroke-width="1" stroke-opacity="1" stroke-miterlimit="4"/><path stroke-linecap="butt" transform="matrix(1.036458, 0, 0, 1.03661, 22825.382346, -2902.265425)" fill="none" stroke-linejoin="miter" d="M -21863.00016 2855.999906 C -21839.456191 2855.739894 -21837.473779 2871.668466 -21808.020262 2871.668466 C -21778.566746 2871.668466 -21775.947399 2855.79265 -21753.040364 2855.999906 " stroke="#0dacc5" stroke-width="1" stroke-opacity="1" stroke-miterlimit="4"/><path stroke-linecap="butt" transform="matrix(1.036458, 0, 0, 1.03661, 22939.355938, -2902.265425)" fill="none" stroke-linejoin="miter" d="M -21863.001064 2855.999906 C -21839.457094 2855.739894 -21837.474682 2871.668466 -21808.021166 2871.668466 C -21778.567649 2871.668466 -21775.948302 2855.79265 -21753.037499 2855.999906 " stroke="#0dacc5" stroke-width="1" stroke-opacity="1" stroke-miterlimit="4"/><path stroke-linecap="butt" transform="matrix(1.036458, 0, 0, 1.03661, 22825.382346, -2893.883258)" fill="none" stroke-linejoin="miter" d="M -21863.00016 2856.000529 C -21839.456191 2855.740517 -21837.473779 2871.669088 -21808.020262 2871.669088 C -21778.566746 2871.669088 -21775.947399 2855.789504 -21753.040364 2856.000529 " stroke="#0dacc5" stroke-width="1" stroke-opacity="1" stroke-miterlimit="4"/><path stroke-linecap="butt" transform="matrix(1.036458, 0, 0, 1.03661, 22939.355938, -2893.883258)" fill="none" stroke-linejoin="miter" d="M -21863.001064 2856.000529 C -21839.457094 2855.740517 -21837.474682 2871.669088 -21808.021166 2871.669088 C -21778.567649 2871.669088 -21775.948302 2855.789504 -21753.037499 2856.000529 " stroke="#0dacc5" stroke-width="1" stroke-opacity="1" stroke-miterlimit="4"/><path stroke-linecap="butt" transform="matrix(1.036458, 0, 0, 1.03661, 22825.382346, -2885.759331)" fill="none" stroke-linejoin="miter" d="M -21863.00016 2856.001563 C -21839.456191 2855.741551 -21837.473779 2871.666355 -21808.020262 2871.666355 C -21778.566746 2871.666355 -21775.947399 2855.790539 -21753.040364 2856.001563 " stroke="#0dacc5" stroke-width="1" stroke-opacity="1" stroke-miterlimit="4"/><path stroke-linecap="butt" transform="matrix(1.036458, 0, 0, 1.03661, 22939.355938, -2885.759331)" fill="none" stroke-linejoin="miter" d="M -21863.001064 2856.001563 C -21839.457094 2855.741551 -21837.474682 2871.666355 -21808.021166 2871.666355 C -21778.567649 2871.666355 -21775.948302 2855.790539 -21753.037499 2856.001563 " stroke="#0dacc5" stroke-width="1" stroke-opacity="1" stroke-miterlimit="4"/><path stroke-linecap="butt" transform="matrix(1.036458, 0, 0, 1.03661, 22825.382346, -2877.902859)" fill="none" stroke-linejoin="miter" d="M -21863.00016 2856.000596 C -21839.456191 2855.740584 -21837.473779 2871.669156 -21808.020262 2871.669156 C -21778.566746 2871.669156 -21775.947399 2855.789572 -21753.040364 2856.000596 " stroke="#0dacc5" stroke-width="1" stroke-opacity="1" stroke-miterlimit="4"/><path stroke-linecap="butt" transform="matrix(1.036458, 0, 0, 1.03661, 22939.355938, -2877.902859)" fill="none" stroke-linejoin="miter" d="M -21863.001064 2856.000596 C -21839.457094 2855.740584 -21837.474682 2871.669156 -21808.021166 2871.669156 C -21778.567649 2871.669156 -21775.948302 2855.789572 -21753.037499 2856.000596 " stroke="#0dacc5" stroke-width="1" stroke-opacity="1" stroke-miterlimit="4"/><path stroke-linecap="butt" transform="matrix(1.036458, 0, 0, 1.03661, 22825.382346, -2869.520908)" fill="none" stroke-linejoin="miter" d="M -21863.00016 2856.001427 C -21839.456191 2855.741415 -21837.473779 2871.666218 -21808.020262 2871.666218 C -21778.566746 2871.666218 -21775.947399 2855.790402 -21753.040364 2856.001427 " stroke="#0dacc5" stroke-width="1" stroke-opacity="1" stroke-miterlimit="4"/><path stroke-linecap="butt" transform="matrix(1.036458, 0, 0, 1.03661, 22939.355938, -2869.520908)" fill="none" stroke-linejoin="miter" d="M -21863.001064 2856.001427 C -21839.457094 2855.741415 -21837.474682 2871.666218 -21808.021166 2871.666218 C -21778.567649 2871.666218 -21775.948302 2855.790402 -21753.037499 2856.001427 " stroke="#0dacc5" stroke-width="1" stroke-opacity="1" stroke-miterlimit="4"/><path stroke-linecap="butt" transform="matrix(1.036458, 0, 0, 1.03661, 22825.382346, -2861.396068)" fill="none" stroke-linejoin="miter" d="M -21863.00016 2856.001582 C -21839.456191 2855.741569 -21837.473779 2871.666373 -21808.020262 2871.666373 C -21778.566746 2871.666373 -21775.947399 2855.790557 -21753.040364 2856.001582 " stroke="#0dacc5" stroke-width="1" stroke-opacity="1" stroke-miterlimit="4"/><path stroke-linecap="butt" transform="matrix(1.036458, 0, 0, 1.03661, 22939.355938, -2861.396068)" fill="none" stroke-linejoin="miter" d="M -21863.001064 2856.001582 C -21839.457094 2855.741569 -21837.474682 2871.666373 -21808.021166 2871.666373 C -21778.567649 2871.666373 -21775.948302 2855.790557 -21753.037499 2856.001582 " stroke="#0dacc5" stroke-width="1" stroke-opacity="1" stroke-miterlimit="4"/><path stroke-linecap="butt" transform="matrix(1.036458, 0, 0, 1.03661, 22825.382346, -2853.539333)" fill="none" stroke-linejoin="miter" d="M -21863.00016 2856.00036 C -21839.456191 2855.740347 -21837.473779 2871.668919 -21808.020262 2871.668919 C -21778.566746 2871.668919 -21775.947399 2855.789335 -21753.040364 2856.00036 " stroke="#0dacc5" stroke-width="1" stroke-opacity="1" stroke-miterlimit="4"/><path stroke-linecap="butt" transform="matrix(1.036458, 0, 0, 1.03661, 22939.355938, -2853.539333)" fill="none" stroke-linejoin="miter" d="M -21863.001064 2856.00036 C -21839.457094 2855.740347 -21837.474682 2871.668919 -21808.021166 2871.668919 C -21778.567649 2871.668919 -21775.948302 2855.789335 -21753.037499 2856.00036 " stroke="#0dacc5" stroke-width="1" stroke-opacity="1" stroke-miterlimit="4"/><path stroke-linecap="butt" transform="matrix(1.036458, 0, 0, 1.03661, 22825.382346, -2845.157381)" fill="none" stroke-linejoin="miter" d="M -21863.00016 2856.00119 C -21839.456191 2855.741178 -21837.473779 2871.66975 -21808.020262 2871.66975 C -21778.566746 2871.66975 -21775.947399 2855.790166 -21753.040364 2856.00119 " stroke="#0dacc5" stroke-width="1" stroke-opacity="1" stroke-miterlimit="4"/><path stroke-linecap="butt" transform="matrix(1.036458, 0, 0, 1.03661, 22939.355938, -2845.157381)" fill="none" stroke-linejoin="miter" d="M -21863.001064 2856.00119 C -21839.457094 2855.741178 -21837.474682 2871.66975 -21808.021166 2871.66975 C -21778.567649 2871.66975 -21775.948302 2855.790166 -21753.037499 2856.00119 " stroke="#0dacc5" stroke-width="1" stroke-opacity="1" stroke-miterlimit="4"/><path stroke-linecap="butt" transform="matrix(1.036458, 0, 0, 1.03661, 22825.382346, -2837.033478)" fill="none" stroke-linejoin="miter" d="M -21863.00016 2855.99848 C -21839.456191 2855.742236 -21837.473779 2871.667039 -21808.020262 2871.667039 C -21778.566746 2871.667039 -21775.947399 2855.791224 -21753.040364 2855.99848 " stroke="#0dacc5" stroke-width="1" stroke-opacity="1" stroke-miterlimit="4"/><path stroke-linecap="butt" transform="matrix(1.036458, 0, 0, 1.03661, 22939.355938, -2837.033478)" fill="none" stroke-linejoin="miter" d="M -21863.001064 2855.99848 C -21839.457094 2855.742236 -21837.474682 2871.667039 -21808.021166 2871.667039 C -21778.567649 2871.667039 -21775.948302 2855.791224 -21753.037499 2855.99848 " stroke="#0dacc5" stroke-width="1" stroke-opacity="1" stroke-miterlimit="4"/><path stroke-linecap="butt" transform="matrix(1.036458, 0, 0, 1.03661, 22825.382346, -2829.177006)" fill="none" stroke-linejoin="miter" d="M -21863.00016 2856.001281 C -21839.456191 2855.741269 -21837.473779 2871.66984 -21808.020262 2871.66984 C -21778.566746 2871.66984 -21775.947399 2855.790256 -21753.040364 2856.001281 " stroke="#0dacc5" stroke-width="1" stroke-opacity="1" stroke-miterlimit="4"/><path stroke-linecap="butt" transform="matrix(1.036458, 0, 0, 1.03661, 22939.355938, -2829.177006)" fill="none" stroke-linejoin="miter" d="M -21863.001064 2856.001281 C -21839.457094 2855.741269 -21837.474682 2871.66984 -21808.021166 2871.66984 C -21778.567649 2871.66984 -21775.948302 2855.790256 -21753.037499 2856.001281 " stroke="#0dacc5" stroke-width="1" stroke-opacity="1" stroke-miterlimit="4"/><path stroke-linecap="butt" transform="matrix(1.036458, 0, 0, 1.03661, 22825.382346, -2820.795055)" fill="none" stroke-linejoin="miter" d="M -21863.00016 2855.998343 C -21839.456191 2855.742099 -21837.473779 2871.666903 -21808.020262 2871.666903 C -21778.566746 2871.666903 -21775.947399 2855.791087 -21753.040364 2855.998343 " stroke="#0dacc5" stroke-width="1" stroke-opacity="1" stroke-miterlimit="4"/><path stroke-linecap="butt" transform="matrix(1.036458, 0, 0, 1.03661, 22939.355938, -2820.795055)" fill="none" stroke-linejoin="miter" d="M -21863.001064 2855.998343 C -21839.457094 2855.742099 -21837.474682 2871.666903 -21808.021166 2871.666903 C -21778.567649 2871.666903 -21775.948302 2855.791087 -21753.037499 2855.998343 " stroke="#0dacc5" stroke-width="1" stroke-opacity="1" stroke-miterlimit="4"/><path stroke-linecap="butt" transform="matrix(1.036458, 0, 0, 1.03661, 22599.473, -2812.671151)" fill="none" stroke-linejoin="miter" d="M -21863.000943 2855.999401 C -21839.456974 2855.739389 -21837.474562 2871.667961 -21808.021045 2871.667961 C -21778.567528 2871.667961 -21775.948182 2855.792145 -21753.037378 2855.999401 " stroke="#0dacc5" stroke-width="1" stroke-opacity="1" stroke-miterlimit="4"/><path stroke-linecap="butt" transform="matrix(1.036458, 0, 0, 1.03661, 22711.410433, -2812.671151)" fill="none" stroke-linejoin="miter" d="M -21863.000878 2855.999401 C -21839.456909 2855.739389 -21837.474497 2871.667961 -21808.02098 2871.667961 C -21778.567463 2871.667961 -21775.948117 2855.792145 -21753.037313 2855.999401 " stroke="#0dacc5" stroke-width="1" stroke-opacity="1" stroke-miterlimit="4"/><path stroke-linecap="butt" transform="matrix(1.036458, 0, 0, 1.03661, 22599.473, -2804.814656)" fill="none" stroke-linejoin="miter" d="M -21863.000943 2855.99841 C -21839.456974 2855.742167 -21837.474562 2871.66697 -21808.021045 2871.66697 C -21778.567528 2871.66697 -21775.948182 2855.791154 -21753.037378 2855.99841 " stroke="#0dacc5" stroke-width="1" stroke-opacity="1" stroke-miterlimit="4"/><path stroke-linecap="butt" transform="matrix(1.036458, 0, 0, 1.03661, 22711.410433, -2804.814656)" fill="none" stroke-linejoin="miter" d="M -21863.000878 2855.99841 C -21839.456909 2855.742167 -21837.474497 2871.66697 -21808.02098 2871.66697 C -21778.567463 2871.66697 -21775.948117 2855.791154 -21753.037313 2855.99841 " stroke="#0dacc5" stroke-width="1" stroke-opacity="1" stroke-miterlimit="4"/><path stroke-linecap="butt" transform="matrix(1.036458, 0, 0, 1.03661, 22599.473, -2796.432464)" fill="none" stroke-linejoin="miter" d="M -21863.000943 2855.99901 C -21839.456974 2855.742766 -21837.474562 2871.667569 -21808.021045 2871.667569 C -21778.567528 2871.667569 -21775.948182 2855.791753 -21753.037378 2855.99901 " stroke="#0dacc5" stroke-width="1" stroke-opacity="1" stroke-miterlimit="4"/><path stroke-linecap="butt" transform="matrix(1.036458, 0, 0, 1.03661, 22711.410433, -2796.432464)" fill="none" stroke-linejoin="miter" d="M -21863.000878 2855.99901 C -21839.456909 2855.742766 -21837.474497 2871.667569 -21808.02098 2871.667569 C -21778.567463 2871.667569 -21775.948117 2855.791753 -21753.037313 2855.99901 " stroke="#0dacc5" stroke-width="1" stroke-opacity="1" stroke-miterlimit="4"/><path stroke-linecap="butt" transform="matrix(1.036458, 0, 0, 1.03661, 22825.382346, -2812.671151)" fill="none" stroke-linejoin="miter" d="M -21863.00016 2855.999401 C -21839.456191 2855.739389 -21837.473779 2871.667961 -21808.020262 2871.667961 C -21778.566746 2871.667961 -21775.947399 2855.792145 -21753.040364 2855.999401 " stroke="#0dacc5" stroke-width="1" stroke-opacity="1" stroke-miterlimit="4"/><path stroke-linecap="butt" transform="matrix(1.036458, 0, 0, 1.03661, 22939.355938, -2812.671151)" fill="none" stroke-linejoin="miter" d="M -21863.001064 2855.999401 C -21839.457094 2855.739389 -21837.474682 2871.667961 -21808.021166 2871.667961 C -21778.567649 2871.667961 -21775.948302 2855.792145 -21753.037499 2855.999401 " stroke="#0dacc5" stroke-width="1" stroke-opacity="1" stroke-miterlimit="4"/><path stroke-linecap="butt" transform="matrix(1.036458, 0, 0, 1.03661, 22825.382346, -2804.814656)" fill="none" stroke-linejoin="miter" d="M -21863.00016 2855.99841 C -21839.456191 2855.742167 -21837.473779 2871.66697 -21808.020262 2871.66697 C -21778.566746 2871.66697 -21775.947399 2855.791154 -21753.040364 2855.99841 " stroke="#0dacc5" stroke-width="1" stroke-opacity="1" stroke-miterlimit="4"/><path stroke-linecap="butt" transform="matrix(1.036458, 0, 0, 1.03661, 22939.355938, -2804.814656)" fill="none" stroke-linejoin="miter" d="M -21863.001064 2855.99841 C -21839.457094 2855.742167 -21837.474682 2871.66697 -21808.021166 2871.66697 C -21778.567649 2871.66697 -21775.948302 2855.791154 -21753.037499 2855.99841 " stroke="#0dacc5" stroke-width="1" stroke-opacity="1" stroke-miterlimit="4"/><path stroke-linecap="butt" transform="matrix(1.036458, 0, 0, 1.03661, 22825.382346, -2796.432464)" fill="none" stroke-linejoin="miter" d="M -21863.00016 2855.99901 C -21839.456191 2855.742766 -21837.473779 2871.667569 -21808.020262 2871.667569 C -21778.566746 2871.667569 -21775.947399 2855.791753 -21753.040364 2855.99901 " stroke="#0dacc5" stroke-width="1" stroke-opacity="1" stroke-miterlimit="4"/><path stroke-linecap="butt" transform="matrix(1.036458, 0, 0, 1.03661, 22939.355938, -2796.432464)" fill="none" stroke-linejoin="miter" d="M -21863.001064 2855.99901 C -21839.457094 2855.742766 -21837.474682 2871.667569 -21808.021166 2871.667569 C -21778.567649 2871.667569 -21775.948302 2855.791753 -21753.037499 2855.99901 " stroke="#0dacc5" stroke-width="1" stroke-opacity="1" stroke-miterlimit="4"/><path stroke-linecap="butt" transform="matrix(1.036458, 0, 0, 1.03661, 22599.473, -2788.308561)" fill="none" stroke-linejoin="miter" d="M -21863.000943 2856.000067 C -21839.456974 2855.740055 -21837.474562 2871.668627 -21808.021045 2871.668627 C -21778.567528 2871.668627 -21775.948182 2855.792811 -21753.037378 2856.000067 " stroke="#0dacc5" stroke-width="1" stroke-opacity="1" stroke-miterlimit="4"/><path stroke-linecap="butt" transform="matrix(1.036458, 0, 0, 1.03661, 22711.410433, -2788.308561)" fill="none" stroke-linejoin="miter" d="M -21863.000878 2856.000067 C -21839.456909 2855.740055 -21837.474497 2871.668627 -21808.02098 2871.668627 C -21778.567463 2871.668627 -21775.948117 2855.792811 -21753.037313 2856.000067 " stroke="#0dacc5" stroke-width="1" stroke-opacity="1" stroke-miterlimit="4"/><path stroke-linecap="butt" transform="matrix(1.036458, 0, 0, 1.03661, 22599.473, -2780.452329)" fill="none" stroke-linejoin="miter" d="M -21863.000943 2855.999332 C -21839.456974 2855.739319 -21837.474562 2871.667891 -21808.021045 2871.667891 C -21778.567528 2871.667891 -21775.948182 2855.792075 -21753.037378 2855.999332 " stroke="#0dacc5" stroke-width="1" stroke-opacity="1" stroke-miterlimit="4"/><path stroke-linecap="butt" transform="matrix(1.036458, 0, 0, 1.03661, 22711.410433, -2780.452329)" fill="none" stroke-linejoin="miter" d="M -21863.000878 2855.999332 C -21839.456909 2855.739319 -21837.474497 2871.667891 -21808.02098 2871.667891 C -21778.567463 2871.667891 -21775.948117 2855.792075 -21753.037313 2855.999332 " stroke="#0dacc5" stroke-width="1" stroke-opacity="1" stroke-miterlimit="4"/><path stroke-linecap="butt" transform="matrix(1.036458, 0, 0, 1.03661, 22599.473, -2772.070138)" fill="none" stroke-linejoin="miter" d="M -21863.000943 2855.999931 C -21839.456974 2855.739918 -21837.474562 2871.66849 -21808.021045 2871.66849 C -21778.567528 2871.66849 -21775.948182 2855.792675 -21753.037378 2855.999931 " stroke="#0dacc5" stroke-width="1" stroke-opacity="1" stroke-miterlimit="4"/><path stroke-linecap="butt" transform="matrix(1.036458, 0, 0, 1.03661, 22711.410433, -2772.070138)" fill="none" stroke-linejoin="miter" d="M -21863.000878 2855.999931 C -21839.456909 2855.739918 -21837.474497 2871.66849 -21808.02098 2871.66849 C -21778.567463 2871.66849 -21775.948117 2855.792675 -21753.037313 2855.999931 " stroke="#0dacc5" stroke-width="1" stroke-opacity="1" stroke-miterlimit="4"/><path stroke-linecap="butt" transform="matrix(1.036458, 0, 0, 1.03661, 22825.382346, -2788.308561)" fill="none" stroke-linejoin="miter" d="M -21863.00016 2856.000067 C -21839.456191 2855.740055 -21837.473779 2871.668627 -21808.020262 2871.668627 C -21778.566746 2871.668627 -21775.947399 2855.792811 -21753.040364 2856.000067 " stroke="#0dacc5" stroke-width="1" stroke-opacity="1" stroke-miterlimit="4"/><path stroke-linecap="butt" transform="matrix(1.036458, 0, 0, 1.03661, 22939.355938, -2788.308561)" fill="none" stroke-linejoin="miter" d="M -21863.001064 2856.000067 C -21839.457094 2855.740055 -21837.474682 2871.668627 -21808.021166 2871.668627 C -21778.567649 2871.668627 -21775.948302 2855.792811 -21753.037499 2856.000067 " stroke="#0dacc5" stroke-width="1" stroke-opacity="1" stroke-miterlimit="4"/><path stroke-linecap="butt" transform="matrix(1.036458, 0, 0, 1.03661, 22825.382346, -2780.452329)" fill="none" stroke-linejoin="miter" d="M -21863.00016 2855.999332 C -21839.456191 2855.739319 -21837.473779 2871.667891 -21808.020262 2871.667891 C -21778.566746 2871.667891 -21775.947399 2855.792075 -21753.040364 2855.999332 " stroke="#0dacc5" stroke-width="1" stroke-opacity="1" stroke-miterlimit="4"/><path stroke-linecap="butt" transform="matrix(1.036458, 0, 0, 1.03661, 22939.355938, -2780.452329)" fill="none" stroke-linejoin="miter" d="M -21863.001064 2855.999332 C -21839.457094 2855.739319 -21837.474682 2871.667891 -21808.021166 2871.667891 C -21778.567649 2871.667891 -21775.948302 2855.792075 -21753.037499 2855.999332 " stroke="#0dacc5" stroke-width="1" stroke-opacity="1" stroke-miterlimit="4"/><path stroke-linecap="butt" transform="matrix(1.036458, 0, 0, 1.03661, 22825.382346, -2772.070138)" fill="none" stroke-linejoin="miter" d="M -21863.00016 2855.999931 C -21839.456191 2855.739918 -21837.473779 2871.66849 -21808.020262 2871.66849 C -21778.566746 2871.66849 -21775.947399 2855.792675 -21753.040364 2855.999931 " stroke="#0dacc5" stroke-width="1" stroke-opacity="1" stroke-miterlimit="4"/><path stroke-linecap="butt" transform="matrix(1.036458, 0, 0, 1.03661, 22939.355938, -2772.070138)" fill="none" stroke-linejoin="miter" d="M -21863.001064 2855.999931 C -21839.457094 2855.739918 -21837.474682 2871.66849 -21808.021166 2871.66849 C -21778.567649 2871.66849 -21775.948302 2855.792675 -21753.037499 2855.999931 " stroke="#0dacc5" stroke-width="1" stroke-opacity="1" stroke-miterlimit="4"/><path stroke-linecap="butt" transform="matrix(1.036458, 0, 0, 1.03661, 22599.473, -2763.945299)" fill="none" stroke-linejoin="miter" d="M -21863.000943 2856.000086 C -21839.456974 2855.740073 -21837.474562 2871.668645 -21808.021045 2871.668645 C -21778.567528 2871.668645 -21775.948182 2855.792829 -21753.037378 2856.000086 " stroke="#0dacc5" stroke-width="1" stroke-opacity="1" stroke-miterlimit="4"/><path stroke-linecap="butt" transform="matrix(1.036458, 0, 0, 1.03661, 22711.410433, -2763.945299)" fill="none" stroke-linejoin="miter" d="M -21863.000878 2856.000086 C -21839.456909 2855.740073 -21837.474497 2871.668645 -21808.02098 2871.668645 C -21778.567463 2871.668645 -21775.948117 2855.792829 -21753.037313 2856.000086 " stroke="#0dacc5" stroke-width="1" stroke-opacity="1" stroke-miterlimit="4"/><path stroke-linecap="butt" transform="matrix(1.036458, 0, 0, 1.03661, 22599.473, -2756.088803)" fill="none" stroke-linejoin="miter" d="M -21863.000943 2855.999095 C -21839.456974 2855.742851 -21837.474562 2871.667655 -21808.021045 2871.667655 C -21778.567528 2871.667655 -21775.948182 2855.791839 -21753.037378 2855.999095 " stroke="#0dacc5" stroke-width="1" stroke-opacity="1" stroke-miterlimit="4"/><path stroke-linecap="butt" transform="matrix(1.036458, 0, 0, 1.03661, 22711.410433, -2756.088803)" fill="none" stroke-linejoin="miter" d="M -21863.000878 2855.999095 C -21839.456909 2855.742851 -21837.474497 2871.667655 -21808.02098 2871.667655 C -21778.567463 2871.667655 -21775.948117 2855.791839 -21753.037313 2855.999095 " stroke="#0dacc5" stroke-width="1" stroke-opacity="1" stroke-miterlimit="4"/><path stroke-linecap="butt" transform="matrix(1.036458, 0, 0, 1.03661, 22599.473, -2747.706852)" fill="none" stroke-linejoin="miter" d="M -21863.000943 2855.999926 C -21839.456974 2855.739914 -21837.474562 2871.668485 -21808.021045 2871.668485 C -21778.567528 2871.668485 -21775.948182 2855.79267 -21753.037378 2855.999926 " stroke="#0dacc5" stroke-width="1" stroke-opacity="1" stroke-miterlimit="4"/><path stroke-linecap="butt" transform="matrix(1.036458, 0, 0, 1.03661, 22711.410433, -2747.706852)" fill="none" stroke-linejoin="miter" d="M -21863.000878 2855.999926 C -21839.456909 2855.739914 -21837.474497 2871.668485 -21808.02098 2871.668485 C -21778.567463 2871.668485 -21775.948117 2855.79267 -21753.037313 2855.999926 " stroke="#0dacc5" stroke-width="1" stroke-opacity="1" stroke-miterlimit="4"/><path stroke-linecap="butt" transform="matrix(1.036458, 0, 0, 1.03661, 22825.382346, -2763.945299)" fill="none" stroke-linejoin="miter" d="M -21863.00016 2856.000086 C -21839.456191 2855.740073 -21837.473779 2871.668645 -21808.020262 2871.668645 C -21778.566746 2871.668645 -21775.947399 2855.792829 -21753.040364 2856.000086 " stroke="#0dacc5" stroke-width="1" stroke-opacity="1" stroke-miterlimit="4"/><path stroke-linecap="butt" transform="matrix(1.036458, 0, 0, 1.03661, 22939.355938, -2763.945299)" fill="none" stroke-linejoin="miter" d="M -21863.001064 2856.000086 C -21839.457094 2855.740073 -21837.474682 2871.668645 -21808.021166 2871.668645 C -21778.567649 2871.668645 -21775.948302 2855.792829 -21753.037499 2856.000086 " stroke="#0dacc5" stroke-width="1" stroke-opacity="1" stroke-miterlimit="4"/><path stroke-linecap="butt" transform="matrix(1.036458, 0, 0, 1.03661, 22825.382346, -2756.088803)" fill="none" stroke-linejoin="miter" d="M -21863.00016 2855.999095 C -21839.456191 2855.742851 -21837.473779 2871.667655 -21808.020262 2871.667655 C -21778.566746 2871.667655 -21775.947399 2855.791839 -21753.040364 2855.999095 " stroke="#0dacc5" stroke-width="1" stroke-opacity="1" stroke-miterlimit="4"/><path stroke-linecap="butt" transform="matrix(1.036458, 0, 0, 1.03661, 22939.355938, -2756.088803)" fill="none" stroke-linejoin="miter" d="M -21863.001064 2855.999095 C -21839.457094 2855.742851 -21837.474682 2871.667655 -21808.021166 2871.667655 C -21778.567649 2871.667655 -21775.948302 2855.791839 -21753.037499 2855.999095 " stroke="#0dacc5" stroke-width="1" stroke-opacity="1" stroke-miterlimit="4"/><path stroke-linecap="butt" transform="matrix(1.036458, 0, 0, 1.03661, 22825.382346, -2747.706852)" fill="none" stroke-linejoin="miter" d="M -21863.00016 2855.999926 C -21839.456191 2855.739914 -21837.473779 2871.668485 -21808.020262 2871.668485 C -21778.566746 2871.668485 -21775.947399 2855.79267 -21753.040364 2855.999926 " stroke="#0dacc5" stroke-width="1" stroke-opacity="1" stroke-miterlimit="4"/><path stroke-linecap="butt" transform="matrix(1.036458, 0, 0, 1.03661, 22939.355938, -2747.706852)" fill="none" stroke-linejoin="miter" d="M -21863.001064 2855.999926 C -21839.457094 2855.739914 -21837.474682 2871.668485 -21808.021166 2871.668485 C -21778.567649 2871.668485 -21775.948302 2855.79267 -21753.037499 2855.999926 " stroke="#0dacc5" stroke-width="1" stroke-opacity="1" stroke-miterlimit="4"/><path stroke-linecap="butt" transform="matrix(1.036458, 0, 0, 1.03661, 22599.473, -2739.582948)" fill="none" stroke-linejoin="miter" d="M -21863.000943 2856.000984 C -21839.456974 2855.740971 -21837.474562 2871.669543 -21808.021045 2871.669543 C -21778.567528 2871.669543 -21775.948182 2855.789959 -21753.037378 2856.000984 " stroke="#0dacc5" stroke-width="1" stroke-opacity="1" stroke-miterlimit="4"/><path stroke-linecap="butt" transform="matrix(1.036458, 0, 0, 1.03661, 22711.410433, -2739.582948)" fill="none" stroke-linejoin="miter" d="M -21863.000878 2856.000984 C -21839.456909 2855.740971 -21837.474497 2871.669543 -21808.02098 2871.669543 C -21778.567463 2871.669543 -21775.948117 2855.789959 -21753.037313 2856.000984 " stroke="#0dacc5" stroke-width="1" stroke-opacity="1" stroke-miterlimit="4"/><path stroke-linecap="butt" transform="matrix(1.036458, 0, 0, 1.03661, 22599.473, -2731.726453)" fill="none" stroke-linejoin="miter" d="M -21863.000943 2855.999993 C -21839.456974 2855.739981 -21837.474562 2871.668553 -21808.021045 2871.668553 C -21778.567528 2871.668553 -21775.948182 2855.792737 -21753.037378 2855.999993 " stroke="#0dacc5" stroke-width="1" stroke-opacity="1" stroke-miterlimit="4"/><path stroke-linecap="butt" transform="matrix(1.036458, 0, 0, 1.03661, 22711.410433, -2731.726453)" fill="none" stroke-linejoin="miter" d="M -21863.000878 2855.999993 C -21839.456909 2855.739981 -21837.474497 2871.668553 -21808.02098 2871.668553 C -21778.567463 2871.668553 -21775.948117 2855.792737 -21753.037313 2855.999993 " stroke="#0dacc5" stroke-width="1" stroke-opacity="1" stroke-miterlimit="4"/><path stroke-linecap="butt" transform="matrix(1.036458, 0, 0, 1.03661, 22599.473, -2723.344501)" fill="none" stroke-linejoin="miter" d="M -21863.000943 2856.000824 C -21839.456974 2855.740811 -21837.474562 2871.669383 -21808.021045 2871.669383 C -21778.567528 2871.669383 -21775.948182 2855.789799 -21753.037378 2856.000824 " stroke="#0dacc5" stroke-width="1" stroke-opacity="1" stroke-miterlimit="4"/><path stroke-linecap="butt" transform="matrix(1.036458, 0, 0, 1.03661, 22711.410433, -2723.344501)" fill="none" stroke-linejoin="miter" d="M -21863.000878 2856.000824 C -21839.456909 2855.740811 -21837.474497 2871.669383 -21808.02098 2871.669383 C -21778.567463 2871.669383 -21775.948117 2855.789799 -21753.037313 2856.000824 " stroke="#0dacc5" stroke-width="1" stroke-opacity="1" stroke-miterlimit="4"/><path stroke-linecap="butt" transform="matrix(1.036458, 0, 0, 1.03661, 22825.382346, -2739.582948)" fill="none" stroke-linejoin="miter" d="M -21863.00016 2856.000984 C -21839.456191 2855.740971 -21837.473779 2871.669543 -21808.020262 2871.669543 C -21778.566746 2871.669543 -21775.947399 2855.789959 -21753.040364 2856.000984 " stroke="#0dacc5" stroke-width="1" stroke-opacity="1" stroke-miterlimit="4"/><path stroke-linecap="butt" transform="matrix(1.036458, 0, 0, 1.03661, 22939.355938, -2739.582948)" fill="none" stroke-linejoin="miter" d="M -21863.001064 2856.000984 C -21839.457094 2855.740971 -21837.474682 2871.669543 -21808.021166 2871.669543 C -21778.567649 2871.669543 -21775.948302 2855.789959 -21753.037499 2856.000984 " stroke="#0dacc5" stroke-width="1" stroke-opacity="1" stroke-miterlimit="4"/><path stroke-linecap="butt" transform="matrix(1.036458, 0, 0, 1.03661, 22825.382346, -2731.726453)" fill="none" stroke-linejoin="miter" d="M -21863.00016 2855.999993 C -21839.456191 2855.739981 -21837.473779 2871.668553 -21808.020262 2871.668553 C -21778.566746 2871.668553 -21775.947399 2855.792737 -21753.040364 2855.999993 " stroke="#0dacc5" stroke-width="1" stroke-opacity="1" stroke-miterlimit="4"/><path stroke-linecap="butt" transform="matrix(1.036458, 0, 0, 1.03661, 22939.355938, -2731.726453)" fill="none" stroke-linejoin="miter" d="M -21863.001064 2855.999993 C -21839.457094 2855.739981 -21837.474682 2871.668553 -21808.021166 2871.668553 C -21778.567649 2871.668553 -21775.948302 2855.792737 -21753.037499 2855.999993 " stroke="#0dacc5" stroke-width="1" stroke-opacity="1" stroke-miterlimit="4"/><path stroke-linecap="butt" transform="matrix(1.036458, 0, 0, 1.03661, 22825.382346, -2723.344501)" fill="none" stroke-linejoin="miter" d="M -21863.00016 2856.000824 C -21839.456191 2855.740811 -21837.473779 2871.669383 -21808.020262 2871.669383 C -21778.566746 2871.669383 -21775.947399 2855.789799 -21753.040364 2856.000824 " stroke="#0dacc5" stroke-width="1" stroke-opacity="1" stroke-miterlimit="4"/><path stroke-linecap="butt" transform="matrix(1.036458, 0, 0, 1.03661, 22939.355938, -2723.344501)" fill="none" stroke-linejoin="miter" d="M -21863.001064 2856.000824 C -21839.457094 2855.740811 -21837.474682 2871.669383 -21808.021166 2871.669383 C -21778.567649 2871.669383 -21775.948302 2855.789799 -21753.037499 2856.000824 " stroke="#0dacc5" stroke-width="1" stroke-opacity="1" stroke-miterlimit="4"/><path stroke-linecap="butt" transform="matrix(1.036458, 0, 0, 1.03661, 22599.473, -2715.220358)" fill="none" stroke-linejoin="miter" d="M -21863.000943 2856.00165 C -21839.456974 2855.741638 -21837.474562 2871.666441 -21808.021045 2871.666441 C -21778.567528 2871.666441 -21775.948182 2855.790626 -21753.037378 2856.00165 " stroke="#0dacc5" stroke-width="1" stroke-opacity="1" stroke-miterlimit="4"/><path stroke-linecap="butt" transform="matrix(1.036458, 0, 0, 1.03661, 22711.410433, -2715.220358)" fill="none" stroke-linejoin="miter" d="M -21863.000878 2856.00165 C -21839.456909 2855.741638 -21837.474497 2871.666441 -21808.02098 2871.666441 C -21778.567463 2871.666441 -21775.948117 2855.790626 -21753.037313 2856.00165 " stroke="#0dacc5" stroke-width="1" stroke-opacity="1" stroke-miterlimit="4"/><path stroke-linecap="butt" transform="matrix(1.036458, 0, 0, 1.03661, 22599.473, -2707.363886)" fill="none" stroke-linejoin="miter" d="M -21863.000943 2856.000683 C -21839.456974 2855.74067 -21837.474562 2871.669242 -21808.021045 2871.669242 C -21778.567528 2871.669242 -21775.948182 2855.789658 -21753.037378 2856.000683 " stroke="#0dacc5" stroke-width="1" stroke-opacity="1" stroke-miterlimit="4"/><path stroke-linecap="butt" transform="matrix(1.036458, 0, 0, 1.03661, 22711.410433, -2707.363886)" fill="none" stroke-linejoin="miter" d="M -21863.000878 2856.000683 C -21839.456909 2855.74067 -21837.474497 2871.669242 -21808.02098 2871.669242 C -21778.567463 2871.669242 -21775.948117 2855.789658 -21753.037313 2856.000683 " stroke="#0dacc5" stroke-width="1" stroke-opacity="1" stroke-miterlimit="4"/><path stroke-linecap="butt" transform="matrix(1.036458, 0, 0, 1.03661, 22599.473, -2698.981935)" fill="none" stroke-linejoin="miter" d="M -21863.000943 2856.001513 C -21839.456974 2855.741501 -21837.474562 2871.666305 -21808.021045 2871.666305 C -21778.567528 2871.666305 -21775.948182 2855.790489 -21753.037378 2856.001513 " stroke="#0dacc5" stroke-width="1" stroke-opacity="1" stroke-miterlimit="4"/><path stroke-linecap="butt" transform="matrix(1.036458, 0, 0, 1.03661, 22711.410433, -2698.981935)" fill="none" stroke-linejoin="miter" d="M -21863.000878 2856.001513 C -21839.456909 2855.741501 -21837.474497 2871.666305 -21808.02098 2871.666305 C -21778.567463 2871.666305 -21775.948117 2855.790489 -21753.037313 2856.001513 " stroke="#0dacc5" stroke-width="1" stroke-opacity="1" stroke-miterlimit="4"/><path stroke-linecap="butt" transform="matrix(1.036458, 0, 0, 1.03661, 22825.382346, -2715.220358)" fill="none" stroke-linejoin="miter" d="M -21863.00016 2856.00165 C -21839.456191 2855.741638 -21837.473779 2871.666441 -21808.020262 2871.666441 C -21778.566746 2871.666441 -21775.947399 2855.790626 -21753.040364 2856.00165 " stroke="#0dacc5" stroke-width="1" stroke-opacity="1" stroke-miterlimit="4"/><path stroke-linecap="butt" transform="matrix(1.036458, 0, 0, 1.03661, 22939.355938, -2715.220358)" fill="none" stroke-linejoin="miter" d="M -21863.001064 2856.00165 C -21839.457094 2855.741638 -21837.474682 2871.666441 -21808.021166 2871.666441 C -21778.567649 2871.666441 -21775.948302 2855.790626 -21753.037499 2856.00165 " stroke="#0dacc5" stroke-width="1" stroke-opacity="1" stroke-miterlimit="4"/><path stroke-linecap="butt" transform="matrix(1.036458, 0, 0, 1.03661, 22825.382346, -2707.363886)" fill="none" stroke-linejoin="miter" d="M -21863.00016 2856.000683 C -21839.456191 2855.74067 -21837.473779 2871.669242 -21808.020262 2871.669242 C -21778.566746 2871.669242 -21775.947399 2855.789658 -21753.040364 2856.000683 " stroke="#0dacc5" stroke-width="1" stroke-opacity="1" stroke-miterlimit="4"/><path stroke-linecap="butt" transform="matrix(1.036458, 0, 0, 1.03661, 22939.355938, -2707.363886)" fill="none" stroke-linejoin="miter" d="M -21863.001064 2856.000683 C -21839.457094 2855.74067 -21837.474682 2871.669242 -21808.021166 2871.669242 C -21778.567649 2871.669242 -21775.948302 2855.789658 -21753.037499 2856.000683 " stroke="#0dacc5" stroke-width="1" stroke-opacity="1" stroke-miterlimit="4"/><path stroke-linecap="butt" transform="matrix(1.036458, 0, 0, 1.03661, 22825.382346, -2698.981935)" fill="none" stroke-linejoin="miter" d="M -21863.00016 2856.001513 C -21839.456191 2855.741501 -21837.473779 2871.666305 -21808.020262 2871.666305 C -21778.566746 2871.666305 -21775.947399 2855.790489 -21753.040364 2856.001513 " stroke="#0dacc5" stroke-width="1" stroke-opacity="1" stroke-miterlimit="4"/><path stroke-linecap="butt" transform="matrix(1.036458, 0, 0, 1.03661, 22939.355938, -2698.981935)" fill="none" stroke-linejoin="miter" d="M -21863.001064 2856.001513 C -21839.457094 2855.741501 -21837.474682 2871.666305 -21808.021166 2871.666305 C -21778.567649 2871.666305 -21775.948302 2855.790489 -21753.037499 2856.001513 " stroke="#0dacc5" stroke-width="1" stroke-opacity="1" stroke-miterlimit="4"/><path stroke-linecap="butt" transform="matrix(1.036458, 0, 0, 1.03661, 22599.473, -2690.856855)" fill="none" stroke-linejoin="miter" d="M -21863.000943 2856.001437 C -21839.456974 2855.741424 -21837.474562 2871.666228 -21808.021045 2871.666228 C -21778.567528 2871.666228 -21775.948182 2855.790412 -21753.037378 2856.001437 " stroke="#0dacc5" stroke-width="1" stroke-opacity="1" stroke-miterlimit="4"/><path stroke-linecap="butt" transform="matrix(1.036458, 0, 0, 1.03661, 22711.410433, -2690.856855)" fill="none" stroke-linejoin="miter" d="M -21863.000878 2856.001437 C -21839.456909 2855.741424 -21837.474497 2871.666228 -21808.02098 2871.666228 C -21778.567463 2871.666228 -21775.948117 2855.790412 -21753.037313 2856.001437 " stroke="#0dacc5" stroke-width="1" stroke-opacity="1" stroke-miterlimit="4"/><path stroke-linecap="butt" transform="matrix(1.036458, 0, 0, 1.03661, 22599.473, -2683.0006)" fill="none" stroke-linejoin="miter" d="M -21863.000943 2856.000678 C -21839.456974 2855.740665 -21837.474562 2871.669237 -21808.021045 2871.669237 C -21778.567528 2871.669237 -21775.948182 2855.789653 -21753.037378 2856.000678 " stroke="#0dacc5" stroke-width="1" stroke-opacity="1" stroke-miterlimit="4"/><path stroke-linecap="butt" transform="matrix(1.036458, 0, 0, 1.03661, 22711.410433, -2683.0006)" fill="none" stroke-linejoin="miter" d="M -21863.000878 2856.000678 C -21839.456909 2855.740665 -21837.474497 2871.669237 -21808.02098 2871.669237 C -21778.567463 2871.669237 -21775.948117 2855.789653 -21753.037313 2856.000678 " stroke="#0dacc5" stroke-width="1" stroke-opacity="1" stroke-miterlimit="4"/><path stroke-linecap="butt" transform="matrix(1.036458, 0, 0, 1.03661, 22599.473, -2674.618408)" fill="none" stroke-linejoin="miter" d="M -21863.000943 2856.001277 C -21839.456974 2855.741265 -21837.474562 2871.669836 -21808.021045 2871.669836 C -21778.567528 2871.669836 -21775.948182 2855.790252 -21753.037378 2856.001277 " stroke="#0dacc5" stroke-width="1" stroke-opacity="1" stroke-miterlimit="4"/><path stroke-linecap="butt" transform="matrix(1.036458, 0, 0, 1.03661, 22711.410433, -2674.618408)" fill="none" stroke-linejoin="miter" d="M -21863.000878 2856.001277 C -21839.456909 2855.741265 -21837.474497 2871.669836 -21808.02098 2871.669836 C -21778.567463 2871.669836 -21775.948117 2855.790252 -21753.037313 2856.001277 " stroke="#0dacc5" stroke-width="1" stroke-opacity="1" stroke-miterlimit="4"/><path stroke-linecap="butt" transform="matrix(1.036458, 0, 0, 1.03661, 22825.382346, -2690.856855)" fill="none" stroke-linejoin="miter" d="M -21863.00016 2856.001437 C -21839.456191 2855.741424 -21837.473779 2871.666228 -21808.020262 2871.666228 C -21778.566746 2871.666228 -21775.947399 2855.790412 -21753.040364 2856.001437 " stroke="#0dacc5" stroke-width="1" stroke-opacity="1" stroke-miterlimit="4"/><path stroke-linecap="butt" transform="matrix(1.036458, 0, 0, 1.03661, 22939.355938, -2690.856855)" fill="none" stroke-linejoin="miter" d="M -21863.001064 2856.001437 C -21839.457094 2855.741424 -21837.474682 2871.666228 -21808.021166 2871.666228 C -21778.567649 2871.666228 -21775.948302 2855.790412 -21753.037499 2856.001437 " stroke="#0dacc5" stroke-width="1" stroke-opacity="1" stroke-miterlimit="4"/><path stroke-linecap="butt" transform="matrix(1.036458, 0, 0, 1.03661, 22825.382346, -2683.0006)" fill="none" stroke-linejoin="miter" d="M -21863.00016 2856.000678 C -21839.456191 2855.740665 -21837.473779 2871.669237 -21808.020262 2871.669237 C -21778.566746 2871.669237 -21775.947399 2855.789653 -21753.040364 2856.000678 " stroke="#0dacc5" stroke-width="1" stroke-opacity="1" stroke-miterlimit="4"/><path stroke-linecap="butt" transform="matrix(1.036458, 0, 0, 1.03661, 22939.355938, -2683.0006)" fill="none" stroke-linejoin="miter" d="M -21863.001064 2856.000678 C -21839.457094 2855.740665 -21837.474682 2871.669237 -21808.021166 2871.669237 C -21778.567649 2871.669237 -21775.948302 2855.789653 -21753.037499 2856.000678 " stroke="#0dacc5" stroke-width="1" stroke-opacity="1" stroke-miterlimit="4"/><path stroke-linecap="butt" transform="matrix(1.036458, 0, 0, 1.03661, 22825.382346, -2674.618408)" fill="none" stroke-linejoin="miter" d="M -21863.00016 2856.001277 C -21839.456191 2855.741265 -21837.473779 2871.669836 -21808.020262 2871.669836 C -21778.566746 2871.669836 -21775.947399 2855.790252 -21753.040364 2856.001277 " stroke="#0dacc5" stroke-width="1" stroke-opacity="1" stroke-miterlimit="4"/><path stroke-linecap="butt" transform="matrix(1.036458, 0, 0, 1.03661, 22939.355938, -2674.618408)" fill="none" stroke-linejoin="miter" d="M -21863.001064 2856.001277 C -21839.457094 2855.741265 -21837.474682 2871.669836 -21808.021166 2871.669836 C -21778.567649 2871.669836 -21775.948302 2855.790252 -21753.037499 2856.001277 " stroke="#0dacc5" stroke-width="1" stroke-opacity="1" stroke-miterlimit="4"/><path stroke-linecap="butt" transform="matrix(1.036458, 0, 0, 1.03661, 22599.473, -2666.494505)" fill="none" stroke-linejoin="miter" d="M -21863.000943 2855.998566 C -21839.456974 2855.742322 -21837.474562 2871.667126 -21808.021045 2871.667126 C -21778.567528 2871.667126 -21775.948182 2855.79131 -21753.037378 2855.998566 " stroke="#0dacc5" stroke-width="1" stroke-opacity="1" stroke-miterlimit="4"/><path stroke-linecap="butt" transform="matrix(1.036458, 0, 0, 1.03661, 22711.410433, -2666.494505)" fill="none" stroke-linejoin="miter" d="M -21863.000878 2855.998566 C -21839.456909 2855.742322 -21837.474497 2871.667126 -21808.02098 2871.667126 C -21778.567463 2871.667126 -21775.948117 2855.79131 -21753.037313 2855.998566 " stroke="#0dacc5" stroke-width="1" stroke-opacity="1" stroke-miterlimit="4"/><path stroke-linecap="butt" transform="matrix(1.036458, 0, 0, 1.03661, 22599.473, -2658.638033)" fill="none" stroke-linejoin="miter" d="M -21863.000943 2856.001367 C -21839.456974 2855.741355 -21837.474562 2871.666159 -21808.021045 2871.666159 C -21778.567528 2871.666159 -21775.948182 2855.790343 -21753.037378 2856.001367 " stroke="#0dacc5" stroke-width="1" stroke-opacity="1" stroke-miterlimit="4"/><path stroke-linecap="butt" transform="matrix(1.036458, 0, 0, 1.03661, 22711.410433, -2658.638033)" fill="none" stroke-linejoin="miter" d="M -21863.000878 2856.001367 C -21839.456909 2855.741355 -21837.474497 2871.666159 -21808.02098 2871.666159 C -21778.567463 2871.666159 -21775.948117 2855.790343 -21753.037313 2856.001367 " stroke="#0dacc5" stroke-width="1" stroke-opacity="1" stroke-miterlimit="4"/><path stroke-linecap="butt" transform="matrix(1.036458, 0, 0, 1.03661, 22599.473, -2650.256082)" fill="none" stroke-linejoin="miter" d="M -21863.000943 2855.99843 C -21839.456974 2855.742186 -21837.474562 2871.666989 -21808.021045 2871.666989 C -21778.567528 2871.666989 -21775.948182 2855.791174 -21753.037378 2855.99843 " stroke="#0dacc5" stroke-width="1" stroke-opacity="1" stroke-miterlimit="4"/><path stroke-linecap="butt" transform="matrix(1.036458, 0, 0, 1.03661, 22711.410433, -2650.256082)" fill="none" stroke-linejoin="miter" d="M -21863.000878 2855.99843 C -21839.456909 2855.742186 -21837.474497 2871.666989 -21808.02098 2871.666989 C -21778.567463 2871.666989 -21775.948117 2855.791174 -21753.037313 2855.99843 " stroke="#0dacc5" stroke-width="1" stroke-opacity="1" stroke-miterlimit="4"/><path stroke-linecap="butt" transform="matrix(1.036458, 0, 0, 1.03661, 22825.382346, -2666.494505)" fill="none" stroke-linejoin="miter" d="M -21863.00016 2855.998566 C -21839.456191 2855.742322 -21837.473779 2871.667126 -21808.020262 2871.667126 C -21778.566746 2871.667126 -21775.947399 2855.79131 -21753.040364 2855.998566 " stroke="#0dacc5" stroke-width="1" stroke-opacity="1" stroke-miterlimit="4"/><path stroke-linecap="butt" transform="matrix(1.036458, 0, 0, 1.03661, 22939.355938, -2666.494505)" fill="none" stroke-linejoin="miter" d="M -21863.001064 2855.998566 C -21839.457094 2855.742322 -21837.474682 2871.667126 -21808.021166 2871.667126 C -21778.567649 2871.667126 -21775.948302 2855.79131 -21753.037499 2855.998566 " stroke="#0dacc5" stroke-width="1" stroke-opacity="1" stroke-miterlimit="4"/><path stroke-linecap="butt" transform="matrix(1.036458, 0, 0, 1.03661, 22825.382346, -2658.638033)" fill="none" stroke-linejoin="miter" d="M -21863.00016 2856.001367 C -21839.456191 2855.741355 -21837.473779 2871.666159 -21808.020262 2871.666159 C -21778.566746 2871.666159 -21775.947399 2855.790343 -21753.040364 2856.001367 " stroke="#0dacc5" stroke-width="1" stroke-opacity="1" stroke-miterlimit="4"/><path stroke-linecap="butt" transform="matrix(1.036458, 0, 0, 1.03661, 22939.355938, -2658.638033)" fill="none" stroke-linejoin="miter" d="M -21863.001064 2856.001367 C -21839.457094 2855.741355 -21837.474682 2871.666159 -21808.021166 2871.666159 C -21778.567649 2871.666159 -21775.948302 2855.790343 -21753.037499 2856.001367 " stroke="#0dacc5" stroke-width="1" stroke-opacity="1" stroke-miterlimit="4"/><path stroke-linecap="butt" transform="matrix(1.036458, 0, 0, 1.03661, 22825.382346, -2650.256082)" fill="none" stroke-linejoin="miter" d="M -21863.00016 2855.99843 C -21839.456191 2855.742186 -21837.473779 2871.666989 -21808.020262 2871.666989 C -21778.566746 2871.666989 -21775.947399 2855.791174 -21753.040364 2855.99843 " stroke="#0dacc5" stroke-width="1" stroke-opacity="1" stroke-miterlimit="4"/><path stroke-linecap="butt" transform="matrix(1.036458, 0, 0, 1.03661, 22939.355938, -2650.256082)" fill="none" stroke-linejoin="miter" d="M -21863.001064 2855.99843 C -21839.457094 2855.742186 -21837.474682 2871.666989 -21808.021166 2871.666989 C -21778.567649 2871.666989 -21775.948302 2855.791174 -21753.037499 2855.99843 " stroke="#0dacc5" stroke-width="1" stroke-opacity="1" stroke-miterlimit="4"/><path stroke-linecap="butt" transform="matrix(1.036458, 0, 0, 1.03661, 22599.473, -2642.132178)" fill="none" stroke-linejoin="miter" d="M -21863.000943 2855.999487 C -21839.456974 2855.739475 -21837.474562 2871.668047 -21808.021045 2871.668047 C -21778.567528 2871.668047 -21775.948182 2855.792231 -21753.037378 2855.999487 " stroke="#0dacc5" stroke-width="1" stroke-opacity="1" stroke-miterlimit="4"/><path stroke-linecap="butt" transform="matrix(1.036458, 0, 0, 1.03661, 22711.410433, -2642.132178)" fill="none" stroke-linejoin="miter" d="M -21863.000878 2855.999487 C -21839.456909 2855.739475 -21837.474497 2871.668047 -21808.02098 2871.668047 C -21778.567463 2871.668047 -21775.948117 2855.792231 -21753.037313 2855.999487 " stroke="#0dacc5" stroke-width="1" stroke-opacity="1" stroke-miterlimit="4"/><path stroke-linecap="butt" transform="matrix(1.036458, 0, 0, 1.03661, 22599.473, -2634.275683)" fill="none" stroke-linejoin="miter" d="M -21863.000943 2855.998497 C -21839.456974 2855.742253 -21837.474562 2871.667057 -21808.021045 2871.667057 C -21778.567528 2871.667057 -21775.948182 2855.791241 -21753.037378 2855.998497 " stroke="#0dacc5" stroke-width="1" stroke-opacity="1" stroke-miterlimit="4"/><path stroke-linecap="butt" transform="matrix(1.036458, 0, 0, 1.03661, 22711.410433, -2634.275683)" fill="none" stroke-linejoin="miter" d="M -21863.000878 2855.998497 C -21839.456909 2855.742253 -21837.474497 2871.667057 -21808.02098 2871.667057 C -21778.567463 2871.667057 -21775.948117 2855.791241 -21753.037313 2855.998497 " stroke="#0dacc5" stroke-width="1" stroke-opacity="1" stroke-miterlimit="4"/><path stroke-linecap="butt" transform="matrix(1.036458, 0, 0, 1.03661, 22599.473, -2625.893732)" fill="none" stroke-linejoin="miter" d="M -21863.000943 2855.999328 C -21839.456974 2855.739315 -21837.474562 2871.667887 -21808.021045 2871.667887 C -21778.567528 2871.667887 -21775.948182 2855.792072 -21753.037378 2855.999328 " stroke="#0dacc5" stroke-width="1" stroke-opacity="1" stroke-miterlimit="4"/><path stroke-linecap="butt" transform="matrix(1.036458, 0, 0, 1.03661, 22711.410433, -2625.893732)" fill="none" stroke-linejoin="miter" d="M -21863.000878 2855.999328 C -21839.456909 2855.739315 -21837.474497 2871.667887 -21808.02098 2871.667887 C -21778.567463 2871.667887 -21775.948117 2855.792072 -21753.037313 2855.999328 " stroke="#0dacc5" stroke-width="1" stroke-opacity="1" stroke-miterlimit="4"/><path stroke-linecap="butt" transform="matrix(1.036458, 0, 0, 1.03661, 22825.382346, -2642.132178)" fill="none" stroke-linejoin="miter" d="M -21863.00016 2855.999487 C -21839.456191 2855.739475 -21837.473779 2871.668047 -21808.020262 2871.668047 C -21778.566746 2871.668047 -21775.947399 2855.792231 -21753.040364 2855.999487 " stroke="#0dacc5" stroke-width="1" stroke-opacity="1" stroke-miterlimit="4"/><path stroke-linecap="butt" transform="matrix(1.036458, 0, 0, 1.03661, 22939.355938, -2642.132178)" fill="none" stroke-linejoin="miter" d="M -21863.001064 2855.999487 C -21839.457094 2855.739475 -21837.474682 2871.668047 -21808.021166 2871.668047 C -21778.567649 2871.668047 -21775.948302 2855.792231 -21753.037499 2855.999487 " stroke="#0dacc5" stroke-width="1" stroke-opacity="1" stroke-miterlimit="4"/><path stroke-linecap="butt" transform="matrix(1.036458, 0, 0, 1.03661, 22825.382346, -2634.275683)" fill="none" stroke-linejoin="miter" d="M -21863.00016 2855.998497 C -21839.456191 2855.742253 -21837.473779 2871.667057 -21808.020262 2871.667057 C -21778.566746 2871.667057 -21775.947399 2855.791241 -21753.040364 2855.998497 " stroke="#0dacc5" stroke-width="1" stroke-opacity="1" stroke-miterlimit="4"/><path stroke-linecap="butt" transform="matrix(1.036458, 0, 0, 1.03661, 22939.355938, -2634.275683)" fill="none" stroke-linejoin="miter" d="M -21863.001064 2855.998497 C -21839.457094 2855.742253 -21837.474682 2871.667057 -21808.021166 2871.667057 C -21778.567649 2871.667057 -21775.948302 2855.791241 -21753.037499 2855.998497 " stroke="#0dacc5" stroke-width="1" stroke-opacity="1" stroke-miterlimit="4"/><path stroke-linecap="butt" transform="matrix(1.036458, 0, 0, 1.03661, 22825.382346, -2625.893732)" fill="none" stroke-linejoin="miter" d="M -21863.00016 2855.999328 C -21839.456191 2855.739315 -21837.473779 2871.667887 -21808.020262 2871.667887 C -21778.566746 2871.667887 -21775.947399 2855.792072 -21753.040364 2855.999328 " stroke="#0dacc5" stroke-width="1" stroke-opacity="1" stroke-miterlimit="4"/><path stroke-linecap="butt" transform="matrix(1.036458, 0, 0, 1.03661, 22939.355938, -2625.893732)" fill="none" stroke-linejoin="miter" d="M -21863.001064 2855.999328 C -21839.457094 2855.739315 -21837.474682 2871.667887 -21808.021166 2871.667887 C -21778.567649 2871.667887 -21775.948302 2855.792072 -21753.037499 2855.999328 " stroke="#0dacc5" stroke-width="1" stroke-opacity="1" stroke-miterlimit="4"/><path stroke-linecap="butt" transform="matrix(1.036458, 0, 0, 1.03661, 22599.473, -2617.768652)" fill="none" stroke-linejoin="miter" d="M -21863.000943 2855.999251 C -21839.456974 2855.739239 -21837.474562 2871.667811 -21808.021045 2871.667811 C -21778.567528 2871.667811 -21775.948182 2855.791995 -21753.037378 2855.999251 " stroke="#0dacc5" stroke-width="1" stroke-opacity="1" stroke-miterlimit="4"/><path stroke-linecap="butt" transform="matrix(1.036458, 0, 0, 1.03661, 22711.410433, -2617.768652)" fill="none" stroke-linejoin="miter" d="M -21863.000878 2855.999251 C -21839.456909 2855.739239 -21837.474497 2871.667811 -21808.02098 2871.667811 C -21778.567463 2871.667811 -21775.948117 2855.791995 -21753.037313 2855.999251 " stroke="#0dacc5" stroke-width="1" stroke-opacity="1" stroke-miterlimit="4"/><path stroke-linecap="butt" transform="matrix(1.036458, 0, 0, 1.03661, 22599.473, -2609.912181)" fill="none" stroke-linejoin="miter" d="M -21863.000943 2855.998284 C -21839.456974 2855.74204 -21837.474562 2871.666843 -21808.021045 2871.666843 C -21778.567528 2871.666843 -21775.948182 2855.791028 -21753.037378 2855.998284 " stroke="#0dacc5" stroke-width="1" stroke-opacity="1" stroke-miterlimit="4"/><path stroke-linecap="butt" transform="matrix(1.036458, 0, 0, 1.03661, 22711.410433, -2609.912181)" fill="none" stroke-linejoin="miter" d="M -21863.000878 2855.998284 C -21839.456909 2855.74204 -21837.474497 2871.666843 -21808.02098 2871.666843 C -21778.567463 2871.666843 -21775.948117 2855.791028 -21753.037313 2855.998284 " stroke="#0dacc5" stroke-width="1" stroke-opacity="1" stroke-miterlimit="4"/><path stroke-linecap="butt" transform="matrix(1.036458, 0, 0, 1.03661, 22599.473, -2601.530229)" fill="none" stroke-linejoin="miter" d="M -21863.000943 2855.999114 C -21839.456974 2855.74287 -21837.474562 2871.667674 -21808.021045 2871.667674 C -21778.567528 2871.667674 -21775.948182 2855.791858 -21753.037378 2855.999114 " stroke="#0dacc5" stroke-width="1" stroke-opacity="1" stroke-miterlimit="4"/><path stroke-linecap="butt" transform="matrix(1.036458, 0, 0, 1.03661, 22711.410433, -2601.530229)" fill="none" stroke-linejoin="miter" d="M -21863.000878 2855.999114 C -21839.456909 2855.74287 -21837.474497 2871.667674 -21808.02098 2871.667674 C -21778.567463 2871.667674 -21775.948117 2855.791858 -21753.037313 2855.999114 " stroke="#0dacc5" stroke-width="1" stroke-opacity="1" stroke-miterlimit="4"/><path stroke-linecap="butt" transform="matrix(1.036458, 0, 0, 1.03661, 22825.382346, -2617.768652)" fill="none" stroke-linejoin="miter" d="M -21863.00016 2855.999251 C -21839.456191 2855.739239 -21837.473779 2871.667811 -21808.020262 2871.667811 C -21778.566746 2871.667811 -21775.947399 2855.791995 -21753.040364 2855.999251 " stroke="#0dacc5" stroke-width="1" stroke-opacity="1" stroke-miterlimit="4"/><path stroke-linecap="butt" transform="matrix(1.036458, 0, 0, 1.03661, 22939.355938, -2617.768652)" fill="none" stroke-linejoin="miter" d="M -21863.001064 2855.999251 C -21839.457094 2855.739239 -21837.474682 2871.667811 -21808.021166 2871.667811 C -21778.567649 2871.667811 -21775.948302 2855.791995 -21753.037499 2855.999251 " stroke="#0dacc5" stroke-width="1" stroke-opacity="1" stroke-miterlimit="4"/><path stroke-linecap="butt" transform="matrix(1.036458, 0, 0, 1.03661, 22825.382346, -2609.912181)" fill="none" stroke-linejoin="miter" d="M -21863.00016 2855.998284 C -21839.456191 2855.74204 -21837.473779 2871.666843 -21808.020262 2871.666843 C -21778.566746 2871.666843 -21775.947399 2855.791028 -21753.040364 2855.998284 " stroke="#0dacc5" stroke-width="1" stroke-opacity="1" stroke-miterlimit="4"/><path stroke-linecap="butt" transform="matrix(1.036458, 0, 0, 1.03661, 22939.355938, -2609.912181)" fill="none" stroke-linejoin="miter" d="M -21863.001064 2855.998284 C -21839.457094 2855.74204 -21837.474682 2871.666843 -21808.021166 2871.666843 C -21778.567649 2871.666843 -21775.948302 2855.791028 -21753.037499 2855.998284 " stroke="#0dacc5" stroke-width="1" stroke-opacity="1" stroke-miterlimit="4"/><path stroke-linecap="butt" transform="matrix(1.036458, 0, 0, 1.03661, 22825.382346, -2601.530229)" fill="none" stroke-linejoin="miter" d="M -21863.00016 2855.999114 C -21839.456191 2855.74287 -21837.473779 2871.667674 -21808.020262 2871.667674 C -21778.566746 2871.667674 -21775.947399 2855.791858 -21753.040364 2855.999114 " stroke="#0dacc5" stroke-width="1" stroke-opacity="1" stroke-miterlimit="4"/><path stroke-linecap="butt" transform="matrix(1.036458, 0, 0, 1.03661, 22939.355938, -2601.530229)" fill="none" stroke-linejoin="miter" d="M -21863.001064 2855.999114 C -21839.457094 2855.74287 -21837.474682 2871.667674 -21808.021166 2871.667674 C -21778.567649 2871.667674 -21775.948302 2855.791858 -21753.037499 2855.999114 " stroke="#0dacc5" stroke-width="1" stroke-opacity="1" stroke-miterlimit="4"/><path stroke-linecap="butt" transform="matrix(1.036458, 0, 0, 1.03661, 22599.473, -2593.406326)" fill="none" stroke-linejoin="miter" d="M -21863.000943 2856.000172 C -21839.456974 2855.74016 -21837.474562 2871.668732 -21808.021045 2871.668732 C -21778.567528 2871.668732 -21775.948182 2855.789148 -21753.037378 2856.000172 " stroke="#0dacc5" stroke-width="1" stroke-opacity="1" stroke-miterlimit="4"/><path stroke-linecap="butt" transform="matrix(1.036458, 0, 0, 1.03661, 22711.410433, -2593.406326)" fill="none" stroke-linejoin="miter" d="M -21863.000878 2856.000172 C -21839.456909 2855.74016 -21837.474497 2871.668732 -21808.02098 2871.668732 C -21778.567463 2871.668732 -21775.948117 2855.789148 -21753.037313 2856.000172 " stroke="#0dacc5" stroke-width="1" stroke-opacity="1" stroke-miterlimit="4"/><path stroke-linecap="butt" transform="matrix(1.036458, 0, 0, 1.03661, 22599.473, -2585.54983)" fill="none" stroke-linejoin="miter" d="M -21863.000943 2855.999182 C -21839.456974 2855.739169 -21837.474562 2871.667741 -21808.021045 2871.667741 C -21778.567528 2871.667741 -21775.948182 2855.791926 -21753.037378 2855.999182 " stroke="#0dacc5" stroke-width="1" stroke-opacity="1" stroke-miterlimit="4"/><path stroke-linecap="butt" transform="matrix(1.036458, 0, 0, 1.03661, 22711.410433, -2585.54983)" fill="none" stroke-linejoin="miter" d="M -21863.000878 2855.999182 C -21839.456909 2855.739169 -21837.474497 2871.667741 -21808.02098 2871.667741 C -21778.567463 2871.667741 -21775.948117 2855.791926 -21753.037313 2855.999182 " stroke="#0dacc5" stroke-width="1" stroke-opacity="1" stroke-miterlimit="4"/><path stroke-linecap="butt" transform="matrix(1.036458, 0, 0, 1.03661, 22825.382346, -2593.406326)" fill="none" stroke-linejoin="miter" d="M -21863.00016 2856.000172 C -21839.456191 2855.74016 -21837.473779 2871.668732 -21808.020262 2871.668732 C -21778.566746 2871.668732 -21775.947399 2855.789148 -21753.040364 2856.000172 " stroke="#0dacc5" stroke-width="1" stroke-opacity="1" stroke-miterlimit="4"/><path stroke-linecap="butt" transform="matrix(1.036458, 0, 0, 1.03661, 22939.355938, -2593.406326)" fill="none" stroke-linejoin="miter" d="M -21863.001064 2856.000172 C -21839.457094 2855.74016 -21837.474682 2871.668732 -21808.021166 2871.668732 C -21778.567649 2871.668732 -21775.948302 2855.789148 -21753.037499 2856.000172 " stroke="#0dacc5" stroke-width="1" stroke-opacity="1" stroke-miterlimit="4"/><path stroke-linecap="butt" transform="matrix(1.036458, 0, 0, 1.03661, 22825.382346, -2585.54983)" fill="none" stroke-linejoin="miter" d="M -21863.00016 2855.999182 C -21839.456191 2855.739169 -21837.473779 2871.667741 -21808.020262 2871.667741 C -21778.566746 2871.667741 -21775.947399 2855.791926 -21753.040364 2855.999182 " stroke="#0dacc5" stroke-width="1" stroke-opacity="1" stroke-miterlimit="4"/><path stroke-linecap="butt" transform="matrix(1.036458, 0, 0, 1.03661, 22939.355938, -2585.54983)" fill="none" stroke-linejoin="miter" d="M -21863.001064 2855.999182 C -21839.457094 2855.739169 -21837.474682 2871.667741 -21808.021166 2871.667741 C -21778.567649 2871.667741 -21775.948302 2855.791926 -21753.037499 2855.999182 " stroke="#0dacc5" stroke-width="1" stroke-opacity="1" stroke-miterlimit="4"/></svg>